<svg width="187" height="128" viewBox="0 0 187 128" fill="none" xmlns="http://www.w3.org/2000/svg">
<rect x="107" y="21" width="80" height="75" rx="12" fill="#FF8E7C"/>
<path d="M37.12 114.28C32.256 114.28 28.032 113.64 24.448 112.36C20.864 110.995 17.8347 109.245 15.36 107.112C12.9707 104.893 11.136 102.419 9.856 99.688C8.576 96.9573 7.85067 94.1413 7.68 91.24H19.712C20.1387 94.4827 21.8453 97.3413 24.832 99.816C27.904 102.291 32 103.528 37.12 103.528C42.9227 103.528 47.488 101.736 50.816 98.152C54.144 94.4827 55.808 89.4053 55.808 82.92C55.808 79.2507 55.2533 76.0933 54.144 73.448C53.12 70.8027 51.712 68.6693 49.92 67.048C48.2133 65.4267 46.2507 64.232 44.032 63.464C41.8133 62.696 39.5093 62.312 37.12 62.312C32.512 62.312 28.8853 63.1653 26.24 64.872C23.68 66.5787 21.7173 68.5413 20.352 70.76H9.6V23.4H62.72V33.896H21.632V58.856C26.0693 53.992 31.872 51.56 39.04 51.56C47.9147 51.56 54.912 54.248 60.032 59.624C65.2373 65 67.84 72.7653 67.84 82.92C67.84 87.6987 67.072 92.0507 65.536 95.976C64.0853 99.816 61.9947 103.101 59.264 105.832C56.6187 108.563 53.376 110.653 49.536 112.104C45.7813 113.555 41.6427 114.28 37.12 114.28ZM103.818 72.168H80.65V61.672H103.818V38.12H115.082V61.672H138.25V72.168H115.082V95.72H103.818V72.168Z" fill="#4B4B4B"/>
</svg>
