<svg width="100" height="100" viewBox="0 0 100 100" fill="none" xmlns="http://www.w3.org/2000/svg">
<rect x="50" width="50" height="47" rx="12" fill="#FF8E7C"/>
<path d="M97.8939 46.9696C97.8939 46.9696 97.7765 46.9696 97.8939 46.9696L91.697 32.5882C90.7615 30.484 88.6572 29.0803 86.3181 29.0803H67.4935C66.558 29.0803 65.6225 29.3144 64.8044 29.7818V27.3259C64.8044 24.9877 62.9335 23 60.4785 23L4.82302 23.0008C2.48477 23.0008 0.49707 24.8718 0.49707 27.3268V63.456C0.49707 65.7943 2.36803 67.782 4.82302 67.782H9.03226C9.85112 72.8093 14.1771 76.6679 19.3217 76.6679C24.583 76.6679 28.9098 72.8095 29.6112 67.782H60.4789C61.7651 67.782 62.8172 67.1972 63.636 66.3792C64.6882 67.198 65.9743 67.782 67.378 67.782H71.4707C72.2896 72.8093 76.6156 76.6679 81.7602 76.6679C87.0215 76.6679 91.3483 72.8095 92.0496 67.782H94.1538C97.311 67.782 100 65.2097 100 61.9358V53.5174C100 52.6985 99.8834 51.9971 99.5327 51.1791L97.8939 46.9696ZM19.3215 73.3942C15.3463 73.3942 12.0725 70.1204 12.0725 66.1452C12.0725 62.17 15.3463 58.8962 19.3215 58.8962C23.2967 58.8962 26.5705 62.17 26.5705 66.1452C26.5705 70.1204 23.2967 73.3942 19.3215 73.3942ZM61.6477 34.8096V63.3388C61.6477 63.9236 61.1804 64.5084 60.4781 64.5084L29.6104 64.5076V64.2735V64.1569V64.0403V63.9236V63.807V63.6904V63.5737V63.4571V63.3405V63.2239V63.1072V62.9906V62.874V62.7573V62.6407V62.5241C29.6104 62.4075 29.6104 62.4075 29.4938 62.29C29.4938 62.1734 29.3772 62.1734 29.3772 62.0559C29.3772 62.0559 29.3772 61.9393 29.2605 61.9393V61.8227C29.2605 61.8227 29.2605 61.7061 29.1439 61.7061V61.5894C29.1439 61.5894 29.1439 61.4728 29.0273 61.4728V61.3562C29.0273 61.3562 29.0273 61.2395 28.9106 61.2395V61.1229C28.9106 61.1229 28.9106 61.0063 28.794 61.0063V60.8896C28.794 60.8896 28.794 60.773 28.6774 60.773V60.6564C28.6774 60.6564 28.6774 60.5398 28.5608 60.5398V60.4231L28.4441 60.3065V60.1899C28.4441 60.0732 28.3275 60.0732 28.3275 59.9558C28.3275 59.8392 28.2109 59.8392 28.2109 59.7217L28.0942 59.6051V59.4885L27.6277 59.0219L27.5111 58.9053L26.6947 58.0889L26.578 57.9723C26.4614 57.9723 26.4614 57.8556 26.344 57.8556C26.2273 57.8556 26.2273 57.739 26.1099 57.739L25.9933 57.6224H25.8766L25.76 57.5058H25.6434C25.6434 57.5058 25.5267 57.5058 25.5267 57.3891H25.4101C25.4101 57.3891 25.2935 57.3891 25.2935 57.2725H25.1769C25.1769 57.2725 25.0602 57.2725 25.0602 57.1559H24.9436C24.9436 57.1559 24.827 57.1559 24.827 57.0392H24.7103C24.7103 57.0392 24.5937 57.0392 24.5937 56.9226H24.4771L24.3605 56.806C24.2438 56.806 24.2438 56.6894 24.1264 56.6894L24.0098 56.5727H23.8931C23.8931 56.5727 23.7765 56.5727 23.7765 56.4561H23.6599C23.6599 56.4561 23.5432 56.4561 23.5432 56.3395H23.4266H23.31H23.1933H23.0767H22.9601H22.8435H22.7268H22.6102H22.4936H22.3769H22.2603H22.0262C21.9096 56.3395 21.9096 56.3395 21.7922 56.2228H21.6755H21.5589H21.4423H21.3257H21.209H21.0924H20.9758H20.8591H20.7425H20.6259H20.5092H20.3926H20.276H20.1594H20.0427H19.9261H19.8095H19.5754H19.3413H19.2247H19.1081H18.9914H18.8748H18.7582H18.6415H18.5249H18.4083H18.2917H18.175H18.0584H17.9418H17.8251H17.7085H17.5919H17.4753H17.3586C17.242 56.2228 17.242 56.2228 17.1246 56.3395H16.8905H16.7739H16.6572H16.5406H16.424H16.3073H16.1907H16.0741H15.9574H15.8408H15.7242H15.6076C15.6076 56.3395 15.4909 56.3395 15.4909 56.4561H15.3743C15.3743 56.4561 15.2577 56.4561 15.2577 56.5727H15.141C15.0244 56.5727 15.0244 56.5727 15.0244 56.6894C14.9078 56.6894 14.9078 56.806 14.7903 56.806L14.6737 56.9226H14.5571C14.5571 56.9226 14.4405 56.9226 14.4405 57.0392H14.3238C14.3238 57.0392 14.2072 57.0392 14.2072 57.1559H14.0906C14.0906 57.1559 13.9739 57.1559 13.9739 57.2725H13.8573C13.8573 57.2725 13.7407 57.2725 13.7407 57.3891H13.6241C13.6241 57.3891 13.5074 57.3891 13.5074 57.5058H13.3908L13.2742 57.6224H13.1575L13.0409 57.739C12.9243 57.739 12.9243 57.8556 12.8068 57.8556C12.6902 57.8556 12.6902 57.9723 12.5728 57.9723L11.873 58.6721L11.7563 58.7887L11.0566 59.4885V59.6051L10.9399 59.7217C10.9399 59.8384 10.8233 59.8384 10.8233 59.9558C10.8233 60.0724 10.7067 60.0724 10.7067 60.1899V60.3065L10.59 60.4231V60.5398C10.59 60.5398 10.59 60.6564 10.4734 60.6564V60.773C10.4734 60.773 10.4734 60.8896 10.3568 60.8896V61.0063C10.3568 61.0063 10.3568 61.1229 10.2402 61.1229V61.2395C10.2402 61.2395 10.2402 61.3562 10.1235 61.3562V61.4728C10.1235 61.4728 10.1235 61.5894 10.0069 61.5894V61.7061C10.0069 61.7061 10.0069 61.8227 9.89027 61.8227V61.9393C9.89027 61.9393 9.89027 62.0559 9.77364 62.0559C9.77364 62.1726 9.65701 62.1726 9.65701 62.29C9.65701 62.4066 9.65701 62.4066 9.54038 62.5241V62.6407V62.7573V62.874V62.9906V63.1072V63.2239V63.3405V63.4571V63.5737V63.6904V63.807V63.9236V64.0403V64.1569V64.2735V64.5076H5.33114C4.74636 64.5076 4.16158 64.0403 4.16158 63.338L4.12162 27.2088C4.12162 26.624 4.58895 26.0392 5.29118 26.0392H61.0636C61.6483 26.0392 62.2331 26.5065 62.2331 27.2088L62.2323 34.8083L61.6477 34.8096ZM74.6262 32.2373H86.3185C87.3706 32.2373 88.3061 32.8221 88.7743 33.8742L94.0357 46.0337H74.6262V32.2373ZM81.8752 73.3942C77.9 73.3942 74.6262 70.1204 74.6262 66.1452C74.6262 62.17 77.9 58.8962 81.8752 58.8962C85.8504 58.8962 89.1243 62.17 89.1243 66.1452C89.1251 70.1204 85.8504 73.3942 81.8752 73.3942ZM96.9587 61.9351C96.9587 63.4554 95.7892 64.6242 94.2697 64.6242H92.1655V64.5075V64.2735V64.1568V64.0402V63.9236V63.8069V63.6903V63.5737V63.4571V63.3404V63.2238V63.1072V62.9905V62.8739V62.7573V62.6407V62.524C92.1655 62.524 92.1655 62.4074 92.0489 62.4074C92.0489 62.2908 91.9323 62.2908 91.9323 62.1733C91.9323 62.1733 91.9323 62.0567 91.8156 62.0567V61.9401C91.8156 61.9401 91.8156 61.8234 91.699 61.8234V61.7068C91.699 61.7068 91.699 61.5902 91.5824 61.5902V61.4736C91.5824 61.4736 91.5824 61.3569 91.4657 61.3569V61.2403C91.4657 61.2403 91.4657 61.1237 91.3491 61.1237V61.007C91.3491 61.007 91.3491 60.8904 91.2325 60.8904V60.7738C91.2325 60.7738 91.2325 60.6571 91.1158 60.6571V60.5405L90.9992 60.4239V60.3073C90.9992 60.1906 90.8826 60.1906 90.8826 60.0732C90.8826 59.9566 90.766 59.9566 90.766 59.8391L90.6493 59.7225V59.6059L90.1828 59.1393L90.0662 59.0227L89.2498 58.2063L89.1331 58.0897C89.0165 58.0897 89.0165 57.973 88.8991 57.973C88.7824 57.973 88.7824 57.8564 88.665 57.8564L88.5484 57.7398H88.4317L88.3151 57.6231H88.1985C88.1985 57.6231 88.0818 57.6231 88.0818 57.5065H87.9652C87.9652 57.5065 87.8486 57.5065 87.8486 57.3899H87.732C87.732 57.3899 87.6153 57.3899 87.6153 57.2733H87.4987C87.4987 57.2733 87.3821 57.2733 87.3821 57.1566H87.2654C87.2654 57.1566 87.1488 57.1566 87.1488 57.04H87.0322L86.9156 56.9234C86.7989 56.9234 86.7989 56.8067 86.6815 56.8067C86.6815 56.8067 86.5648 56.6901 86.4474 56.6901H86.3308C86.3308 56.6901 86.2141 56.6901 86.2141 56.5735H86.0975C86.0975 56.5735 85.9809 56.5735 85.9809 56.4568H85.8643H85.7476H85.631H85.5144H85.3977H85.2811H85.1645H85.0479H84.9312H84.8146H84.698H84.4639C84.3473 56.4568 84.3473 56.4568 84.2298 56.3402H84.1132H83.9966H83.8799H83.7633H83.6467H83.53H83.4134H83.2968H83.1802H83.0635H82.9469H82.8303H82.7136H82.597H82.4804H82.3638H82.2471H82.0131H81.779H81.6623H81.5457H81.4291H81.3125H81.1958H81.0792H80.9626H80.8459H80.7293H80.6127H80.4961H80.3794H80.2628H80.1462H80.0295H79.9129H79.7963C79.6797 56.3402 79.6797 56.3402 79.5622 56.4568H79.3281H79.2115H79.0949H78.9782H78.8616H78.745H78.6284H78.5117H78.3951H78.2785H78.1618H78.0452C78.0452 56.4568 77.9286 56.4569 77.9286 56.5735H77.812C77.812 56.5735 77.6953 56.5735 77.6953 56.6901H77.5787C77.3153 56.7912 77.1986 56.7912 77.1986 56.7912C77.082 56.7912 77.082 56.9079 76.9646 56.9079L76.8479 57.0245H76.7313C76.7313 57.0245 76.6147 57.0245 76.6147 57.1411H76.498C76.498 57.1411 76.3814 57.1411 76.3814 57.2578H76.2648C76.2648 57.2578 76.1482 57.2578 76.1482 57.3744H76.0315C76.0315 57.3744 75.9149 57.3744 75.9149 57.491H75.7983C75.7983 57.491 75.6816 57.491 75.6816 57.6076H75.565L75.4484 57.7243H75.3318L75.2151 57.8409C75.0985 57.9575 74.9811 58.075 74.8644 58.1916L74.1646 58.8914L74.048 59.008L73.5815 59.4745V59.5912L73.4649 59.7078V59.8244L73.3482 59.9411C73.2316 60.0577 73.1142 60.1751 73.1142 60.2918L72.9975 60.4084V60.525C72.9975 60.525 72.9975 60.6417 72.8809 60.6417V60.7583C72.8809 60.7583 72.8809 60.8749 72.7643 60.8749V60.9915C72.7643 60.9915 72.7643 61.1082 72.6476 61.1082V61.2248C72.6476 61.2248 72.6476 61.3414 72.531 61.3414V61.4581C72.531 61.4581 72.531 61.5747 72.4144 61.5747V61.6913C72.4144 61.6913 72.4144 61.8079 72.2978 61.8079V61.9246C72.2978 62.0412 72.2978 62.0412 72.1811 62.1587C72.1811 62.2753 72.0645 62.2753 72.0645 62.3927C72.0645 62.5094 72.0645 62.5094 71.9479 62.6268V62.7434V62.8601V62.9767V63.0933V63.2099V63.3266V63.4432V63.5598V63.6765V63.7931V63.9097V64.0263V64.143V64.2596V64.3762V64.6103H67.8551C66.3349 64.6103 65.1661 63.4407 65.1661 61.9213L65.1555 34.8097C65.1555 33.2895 66.3251 32.1207 67.8445 32.1207H71.8197V47.4374C71.8197 48.2563 72.5211 49.0743 73.4566 49.0743H95.7889L97.1918 52.2314C97.3084 52.5821 97.4258 52.9329 97.4258 53.2836V61.9355L96.9587 61.9351Z" fill="#4B4B4B"/>
</svg>
