<svg width="100" height="100" viewBox="0 0 100 100" fill="none" xmlns="http://www.w3.org/2000/svg">
<g clip-path="url(#clip0_157_5809)">
<rect x="50" width="50" height="47" rx="12" fill="#FF8E7C"/>
<path d="M50.0193 66.9451C42.9967 66.9451 36.9378 63.3925 33.0965 60.4115C29.7299 57.8023 27.7948 53.8503 27.7948 49.5743V43.7776L25.6179 42.325C23.711 41.0514 22.5762 38.9239 22.5762 36.6388V30.8482C22.5762 29.4922 23.1686 28.2185 24.2076 27.3437C25.1164 26.5864 26.2738 26.2215 27.4235 26.2835V16.9209C27.4235 12.2942 28.9514 8.5007 31.9733 5.64341C38.2591 -0.312047 48.8278 -0.0364234 50.0191 0.0184202C51.2103 -0.0294484 61.7767 -0.311947 68.0624 5.64341C71.0782 8.5007 72.6147 12.294 72.6147 16.9209V26.2835C73.7776 26.2215 74.9281 26.5872 75.8368 27.3507C76.8766 28.2257 77.4675 29.4993 77.4675 30.8553V36.645C77.4675 38.938 76.3249 41.0655 74.4179 42.3321L72.2427 43.7846V49.5814C72.2427 53.8566 70.3083 57.8085 66.9417 60.4185C63.0996 63.3927 57.0415 66.9451 50.0189 66.9451L50.0193 66.9451ZM27.1417 29.7197C26.7972 29.7197 26.55 29.8782 26.426 29.9881C26.2745 30.1129 26.0187 30.3946 26.0187 30.856V36.6457C26.0187 37.782 26.5837 38.8423 27.527 39.4685L30.4666 41.4311C30.9484 41.7473 31.231 42.2911 31.231 42.8632V49.5821C31.231 52.7839 32.6764 55.7438 35.1962 57.6993C38.6184 60.3501 43.9679 63.5095 50.0128 63.5095C56.0647 63.5095 61.4064 60.3501 64.8278 57.6993C67.3476 55.7438 68.793 52.7837 68.793 49.5821V42.8632C68.793 42.2911 69.0826 41.7473 69.5581 41.4311L72.4978 39.4685C73.441 38.8352 74.0123 37.7821 74.0123 36.6457V30.856C74.0123 30.3946 73.7581 30.1191 73.6066 29.9881C73.456 29.8649 73.1389 29.6648 72.6846 29.7409L71.1834 30.0093C70.6874 30.1058 70.1703 29.9606 69.7779 29.6373C69.3855 29.3069 69.1666 28.8251 69.1666 28.315V16.9349C69.1666 13.2999 68.0013 10.3462 65.702 8.1639C60.263 3.00037 50.2122 3.46182 50.1156 3.47508H49.9288C49.8323 3.46173 39.7813 3.00031 34.3353 8.1639C32.0361 10.3462 30.8731 13.2999 30.8731 16.9349V28.315C30.8731 28.8251 30.6456 29.3069 30.2595 29.6373C29.8671 29.9606 29.3515 30.1058 28.8564 30.0093L27.3489 29.7409C27.2728 29.7268 27.2108 29.7197 27.1417 29.7197L27.1417 29.7197Z" fill="#4B4B4B"/>
<path d="M7.25706 99.9997C6.30752 99.9997 5.53613 99.2283 5.53613 98.278V93.9196C5.53613 91.0491 6.65203 88.3573 8.68291 86.3265L12.9856 82.023C15.0164 79.9922 17.7152 78.8762 20.5796 78.8762H26.3082C28.0566 78.8762 29.7029 78.1951 30.942 76.956L34.1782 73.7206C34.9904 72.9076 35.4369 71.827 35.4369 70.6775V61.1421C35.4369 60.1918 36.2075 59.4204 37.1578 59.4204C38.1081 59.4204 38.8787 60.1918 38.8787 61.1421V70.6775C38.8787 72.7491 38.0744 74.6913 36.6084 76.1572L33.3731 79.3934C31.4866 81.2791 28.9723 82.3188 26.3011 82.3188H20.5732C18.6247 82.3188 16.7932 83.0761 15.4097 84.4533L11.1062 88.756C9.72972 90.1332 8.96464 91.9648 8.96464 93.9133V98.2709C8.97877 99.2282 8.20738 99.9996 7.25706 99.9996V99.9997Z" fill="#4B4B4B"/>
<path d="M92.7788 100C91.8292 100 91.0579 99.2295 91.0579 98.2792V93.9208C91.0579 91.9723 90.2935 90.1416 88.9163 88.7643L84.6207 84.4616C83.2434 83.0844 81.4048 82.3271 79.4571 82.3271H73.7285C71.098 82.3271 68.5241 81.2599 66.6659 79.4009L63.4297 76.1655C61.9638 74.7059 61.1572 72.7574 61.1572 70.685V61.1496C61.1572 60.2001 61.9286 59.4287 62.8789 59.4287C63.8293 59.4287 64.5999 60.2001 64.5999 61.1496V70.685C64.5999 71.8346 65.048 72.9159 65.8609 73.7281L69.0963 76.9643C70.315 78.183 72.0006 78.8845 73.7287 78.8845H79.4573C82.3279 78.8845 85.0275 79.9996 87.0513 82.0313L91.3477 86.334C93.3786 88.3578 94.4937 91.0574 94.4937 93.928V98.2863C94.5008 99.2296 93.7294 100 92.7791 100L92.7788 100Z" fill="#4B4B4B"/>
</g>
<defs>
<clipPath id="clip0_157_5809">
<rect width="100" height="100" fill="white"/>
</clipPath>
</defs>
</svg>
