<svg width="100" height="100" viewBox="0 0 100 100" fill="none" xmlns="http://www.w3.org/2000/svg">
<g clip-path="url(#clip0_157_5829)">
<rect x="50" width="50" height="47" rx="12" fill="#FF8E7C"/>
<path d="M87.8007 57.708C87.6818 57.708 87.5629 57.6908 87.4457 57.6593L78.4046 55.0763C77.8271 54.9105 77.4396 54.3699 77.4694 53.7708L78.7614 27.2764C78.7947 26.5889 79.3632 26.0483 80.0516 26.0483H86.5097C87.2007 26.0483 87.7692 26.5925 87.7999 27.2836L89.0793 56.1029C89.1054 56.2038 89.118 56.3083 89.118 56.4165C89.118 57.1345 88.5161 57.7382 87.8134 57.7085C87.8098 57.7076 87.8044 57.7076 87.8008 57.7076L87.8007 57.708ZM80.0992 52.8743L86.4311 54.6825L85.2734 28.6332H81.2811L80.0992 52.8743Z" fill="#4B4B4B"/>
<path d="M86.7511 36.3962H79.7334C79.0207 36.3962 78.4414 35.8187 78.4414 35.1042C78.4414 34.3898 79.0198 33.8123 79.7334 33.8123H86.7511C87.4637 33.8123 88.0431 34.3898 88.0431 35.1042C88.0422 35.8187 87.4637 36.3962 86.7511 36.3962Z" fill="#4B4B4B"/>
<path d="M58.6405 53.6347C58.5216 53.6347 58.4027 53.6176 58.2856 53.5861L49.2444 51.003C48.6669 50.8373 48.2795 50.2967 48.3092 49.6975L49.6012 23.2031C49.6345 22.5157 50.2031 21.9751 50.8914 21.9751H57.3495C58.0406 21.9751 58.6091 22.5193 58.6397 23.2103L59.92 52.0297C59.9461 52.1306 59.9587 52.2351 59.9587 52.3432C59.9587 53.0613 59.3983 53.6361 58.6541 53.6352H58.6406L58.6405 53.6347ZM50.9381 48.8001L57.27 50.6083L56.1123 24.5568H52.12L50.9381 48.8001Z" fill="#4B4B4B"/>
<path d="M57.5929 31.0313H50.5752C49.8625 31.0313 49.2832 30.4537 49.2832 29.7393C49.2832 29.0248 49.8616 28.4473 50.5752 28.4473H57.5929C58.3055 28.4473 58.8849 29.0248 58.8849 29.7393C58.8849 30.4546 58.3055 31.0313 57.5929 31.0313Z" fill="#4B4B4B"/>
<path d="M25.8486 48.6596C25.7296 48.6596 25.6107 48.6425 25.4936 48.611L16.4524 46.0279C15.8749 45.8622 15.4875 45.3216 15.5172 44.7224L16.8092 18.228C16.8426 17.5406 17.4111 17 18.0994 17H24.5575C25.2486 17 25.8171 17.5442 25.8477 18.2352L27.128 47.0546C27.1541 47.1555 27.1667 47.26 27.1667 47.3681C27.1667 48.088 26.5865 48.7142 25.8622 48.6601H25.8486L25.8486 48.6596ZM18.1479 43.825L24.4799 45.6333L23.3222 19.5817H19.3299L18.1479 43.825Z" fill="#4B4B4B"/>
<path d="M24.8018 26.0562H17.7842C17.0715 26.0562 16.4922 25.4786 16.4922 24.7642C16.4922 24.0497 17.0706 23.4722 17.7842 23.4722H24.8018C25.5145 23.4722 26.0938 24.0497 26.0938 24.7642C26.0938 25.4786 25.5145 26.0562 24.8018 26.0562Z" fill="#4B4B4B"/>
<path d="M86.8322 77.299H79.7246C79.012 77.299 78.4326 76.7215 78.4326 76.007V69.012C78.4326 68.2975 79.011 67.72 79.7246 67.72H86.8322C87.5449 67.72 88.1242 68.2975 88.1242 69.012V76.007C88.1242 76.7215 87.5458 77.299 86.8322 77.299ZM81.0146 74.716H85.5392V70.304H81.0146V74.716Z" fill="#4B4B4B"/>
<path d="M70.2551 77.299H63.1475C62.4348 77.299 61.8555 76.7215 61.8555 76.007V69.012C61.8555 68.2975 62.4339 67.72 63.1475 67.72H70.2551C70.9677 67.72 71.5471 68.2975 71.5471 69.012V76.007C71.5471 76.7215 70.9687 77.299 70.2551 77.299ZM64.4393 74.716H68.9639V70.304H64.4393V74.716Z" fill="#4B4B4B"/>
<path d="M53.6809 77.299H46.5732C45.8606 77.299 45.2812 76.7215 45.2812 76.007V69.012C45.2812 68.2975 45.8597 67.72 46.5732 67.72H53.6809C54.3935 67.72 54.9729 68.2975 54.9729 69.012V76.007C54.9729 76.7215 54.3935 77.299 53.6809 77.299ZM47.8633 74.716H52.3879V70.304H47.8633V74.716Z" fill="#4B4B4B"/>
<path d="M37.1047 77.299H29.9971C29.2844 77.299 28.7051 76.7215 28.7051 76.007V69.012C28.7051 68.2975 29.2835 67.72 29.9971 67.72H37.1047C37.8173 67.72 38.3967 68.2975 38.3967 69.012V76.007C38.3967 76.7215 37.8183 77.299 37.1047 77.299ZM31.2889 74.716H35.8135V70.304H31.2889V74.716Z" fill="#4B4B4B"/>
<path d="M20.5304 77.299H13.4209C12.7082 77.299 12.1289 76.7215 12.1289 76.007V69.012C12.1289 68.2975 12.7073 67.72 13.4209 67.72H20.5285C21.2412 67.72 21.8205 68.2975 21.8205 69.012V76.007C21.8214 76.7215 21.243 77.299 20.5303 77.299H20.5304ZM14.7128 74.716H19.2374V70.304H14.7128V74.716Z" fill="#4B4B4B"/>
<path d="M99.1393 65.8705C99.0051 65.8705 98.8672 65.8489 98.7312 65.8048L68.0574 55.5896L68.1638 59.4377C68.1755 59.8585 67.98 60.2594 67.643 60.5099C67.3033 60.7603 66.8628 60.8315 66.4654 60.6982L42.748 52.7985L42.6624 57.2521C42.6543 57.6611 42.4516 58.044 42.1164 58.2819C41.7804 58.5197 41.3515 58.5801 40.9632 58.454L0.883639 45.1071C0.207012 44.881 -0.158771 44.1503 0.0664563 43.4719C0.290797 42.7961 1.02057 42.4322 1.7008 42.6547L40.1128 55.4466L40.1984 50.993C40.2065 50.584 40.4092 50.2011 40.7443 49.9632C41.0786 49.7245 41.5075 49.6614 41.8976 49.7912L65.5297 57.662L65.4234 53.8139C65.4116 53.3931 65.6072 52.9922 65.9441 52.7417C66.2829 52.4895 66.7225 52.4201 67.1217 52.5534L99.546 63.3514C100.223 63.5776 100.588 64.3082 100.363 64.9867C100.184 65.5281 99.6803 65.8705 99.1388 65.8705L99.1393 65.8705Z" fill="#4B4B4B"/>
<path d="M92.0702 82.6824H6.30176C5.5891 82.6824 5.00977 82.1049 5.00977 81.3904V45.5479C5.00977 44.8334 5.58818 44.2559 6.30176 44.2559C7.01441 44.2559 7.59375 44.8334 7.59375 45.5479V80.0988H90.7789V68.5385C90.7789 67.824 91.3573 67.2465 92.0709 67.2465C92.7836 67.2465 93.3629 67.824 93.3629 68.5385V81.3899C93.3638 82.1044 92.7845 82.6819 92.0718 82.6819L92.0702 82.6824Z" fill="#4B4B4B"/>
</g>
<defs>
<clipPath id="clip0_157_5829">
<rect width="100" height="100" fill="white"/>
</clipPath>
</defs>
</svg>
