<svg width="100" height="100" viewBox="0 0 100 100" fill="none" xmlns="http://www.w3.org/2000/svg">
<g clip-path="url(#clip0_157_5850)">
<rect x="50" width="50" height="47" rx="12" fill="#FF8E7C"/>
<path d="M40.4997 -0.448242C39.8412 -0.448242 39.3074 0.085561 39.3074 0.744098V15.0479C39.3074 15.7064 39.8412 16.2402 40.4997 16.2402C41.1583 16.2402 41.6921 15.7064 41.6921 15.0479V0.744098C41.6921 0.085561 41.1583 -0.448242 40.4997 -0.448242ZM5.93175 13.8555C5.62659 13.8555 5.34473 13.9952 5.1119 14.228C4.64628 14.6937 4.64628 15.4387 5.1119 15.9043L15.2069 25.9993C15.6725 26.4649 16.4175 26.4649 16.8831 25.9993C17.3487 25.5336 17.3487 24.7886 16.8831 24.323L6.78815 14.228C6.55533 13.9952 6.23605 13.8555 5.93175 13.8555ZM75.0677 13.8555C74.7626 13.8555 74.4441 13.9952 74.2113 14.228L64.1164 24.323C63.6507 24.7886 63.6507 25.5336 64.1164 25.9993C64.582 26.4649 65.327 26.4649 65.7926 25.9993L75.8876 15.9043C76.3532 15.4387 76.3532 14.6937 75.8876 14.228C75.6548 13.9952 75.3729 13.8555 75.0677 13.8555ZM15.6912 31.028L0.195032 52.484C-0.120103 52.9197 -0.0876646 53.5724 0.269033 53.974L39.605 99.27C40.0507 99.7755 40.947 99.7755 41.3927 99.27L80.7287 53.974C81.0854 53.5724 81.1178 52.9197 80.8027 52.484L65.3065 31.028C65.0836 30.7262 64.7128 30.5408 64.3378 30.5441H16.6578C16.1764 30.5167 15.887 30.7727 15.6908 31.028H15.6912ZM18.3737 32.9279H38.1162L24.8924 50.8829L18.3737 32.9279ZM42.8842 32.9279H62.6267L56.1079 50.8829L42.8842 32.9279ZM40.5004 33.7478L53.9478 52.0003H27.0533L40.5004 33.7478ZM16.2879 34.2317L22.7692 52.0004H3.4741L16.2879 34.2317ZM64.7129 34.2317L77.5267 52.0004H58.268L64.7129 34.2317ZM3.77188 54.3841H23.6257L37.9295 93.6818L3.77188 54.3841ZM26.1602 54.3841H54.8427L40.5014 93.7946L26.1602 54.3841ZM57.3757 54.3841H77.2295L43.0702 93.6818L57.3757 54.3841Z" fill="#4B4B4B"/>
</g>
<defs>
<clipPath id="clip0_157_5850">
<rect width="100" height="100" fill="white"/>
</clipPath>
</defs>
</svg>
