<svg width="170" height="45" viewBox="0 0 170 45" fill="none" xmlns="http://www.w3.org/2000/svg">
<path fill-rule="evenodd" clip-rule="evenodd" d="M162.817 3.47174C162.817 2.63372 163.176 1.79569 163.774 1.07738C164.373 0.478787 165.211 0.119629 166.169 0.119629C167.007 0.119629 167.845 0.478787 168.563 1.07738C169.162 1.67597 169.521 2.514 169.521 3.47174C169.521 4.30977 169.162 5.1478 168.563 5.86611C167.964 6.4647 167.126 6.82386 166.169 6.82386C165.331 6.82386 164.493 6.4647 163.774 5.86611C163.056 5.1478 162.817 4.30977 162.817 3.47174ZM163.176 3.47174C163.176 2.75343 163.415 2.03512 164.014 1.43653C164.612 0.837941 165.331 0.598503 166.049 0.598503C166.767 0.598503 167.486 0.837941 168.084 1.43653C168.683 2.03512 168.922 2.75343 168.922 3.47174C168.922 4.19005 168.683 4.90836 168.084 5.50696C167.486 6.10555 166.767 6.34498 166.049 6.34498C165.331 6.34498 164.612 6.10555 164.014 5.50696C163.535 4.90836 163.176 4.19005 163.176 3.47174ZM165.57 3.23231H166.288C166.408 3.23231 166.528 3.23231 166.528 3.11259C166.648 2.99287 166.648 2.99287 166.648 2.87315C166.648 2.75343 166.648 2.75343 166.528 2.63372C166.408 2.63372 166.408 2.514 166.288 2.514H165.57V3.23231ZM165.57 5.26752H164.493V1.79569H166.648C166.887 1.79569 167.126 1.91541 167.366 2.03512C167.605 2.15484 167.725 2.39428 167.845 2.63372C167.845 2.99287 167.845 3.23231 167.605 3.47174C167.486 3.59146 167.366 3.59146 167.246 3.71118C167.486 3.71118 167.725 3.95062 167.725 4.19005C167.725 4.30977 167.725 4.30977 167.725 4.42949C167.725 4.66893 167.725 4.90836 167.845 5.1478C167.845 5.26752 167.845 5.26752 167.964 5.38724H166.887C166.887 5.26752 166.767 5.26752 166.767 5.1478C166.767 4.90836 166.767 4.66893 166.648 4.54921C166.648 4.42949 166.648 4.42949 166.528 4.30977C166.408 4.19005 166.408 4.19005 166.288 4.19005H165.69V5.26752H165.57ZM2.75316 41.6619L9.69682 24.183C9.81654 23.7041 10.1757 23.4647 10.6546 23.345C11.1334 23.2253 11.6123 23.345 11.9715 23.5844C12.8095 24.183 13.5278 24.9013 14.2461 25.6196C14.4856 25.8591 14.8447 25.8591 15.0841 25.7393C15.3236 25.6196 15.4433 25.2605 15.4433 24.9013C15.2039 20.5915 14.8447 16.6408 14.4856 12.3309C14.4856 11.9717 14.2461 11.7323 13.887 11.6126C13.5278 11.4929 13.2884 11.6126 13.0489 11.852L3.59119 20.7112C3.35175 20.8309 3.35175 21.1901 3.47147 21.4295C3.59119 21.6689 3.83063 21.7886 4.07006 21.7886C5.02781 21.9084 5.86584 21.9084 6.82358 21.9084C7.42217 21.9084 7.90105 22.1478 8.2602 22.6267C8.61936 23.1055 8.73908 23.7041 8.49964 24.183L1.55598 41.7816L0.478516 41.9013L7.30246 24.3027C7.42218 23.9436 7.42218 23.5844 7.18274 23.345C6.9433 23.1055 6.70387 22.8661 6.34471 22.8661C5.26725 22.7464 4.42922 22.7464 3.35175 22.8661C2.75316 22.8661 2.27429 22.507 2.03485 21.9084C1.79541 21.4295 1.91513 20.8309 2.39401 20.352L12.3306 11.014C12.8095 10.5351 13.5278 10.2957 14.2461 10.5351C14.9644 10.7746 15.3236 11.3732 15.4433 12.0915C15.6827 16.7605 16.0419 20.9506 16.401 25.6196C16.5208 26.2182 16.1616 26.8168 15.6827 27.176C15.2039 27.5351 14.4856 27.5351 14.0067 27.176C13.0489 26.4577 12.3306 25.8591 11.4926 25.021C11.3729 24.7816 11.1334 24.7816 10.894 24.7816C10.6546 24.7816 10.4151 25.021 10.2954 25.1408C7.66161 30.7675 5.6264 35.9154 3.71091 41.7816L2.75316 41.6619ZM32.6827 33.8802C33.2813 34.7182 34.2391 35.1971 35.556 35.1971C36.8729 35.1971 38.1898 34.7182 39.5067 33.8802C40.7039 33.0422 41.6616 32.0844 42.4996 31.007C44.1757 28.6126 45.1334 26.2182 45.2532 23.9436C45.2532 22.8661 45.0137 21.9084 44.5349 21.0703C43.9363 20.2323 42.8588 19.7534 41.6616 19.7534C40.3447 19.7534 39.0278 20.2323 37.7109 21.0703C36.5137 21.9084 35.556 22.8661 34.718 23.9436C32.9222 26.3379 31.9644 28.7323 31.9644 31.1267C31.8447 32.2041 32.0841 33.1619 32.6827 33.8802ZM15.563 42.021L31.3658 1.31681H43.0982L37.7109 15.0844C41.9011 12.6901 46.0912 11.6126 50.1616 11.9717C54.3518 12.3309 57.225 14.7253 57.8236 18.4365C58.7813 24.183 56.1475 30.8872 50.7602 36.6337C47.1687 40.345 42.4996 42.8591 37.9503 43.2182C33.7602 43.5774 30.2884 42.2605 28.3729 39.6267L27.4151 42.1408H15.563V42.021ZM53.0349 42.021L68.8377 1.31681H81.0489L65.2461 42.021H53.0349ZM111.098 13.0492L99.8447 42.021H88.3518L89.4292 39.2675C87.8729 40.4647 86.3165 41.3027 84.5208 41.9013C80.4503 43.2182 76.7391 43.3379 73.6264 42.021C70.0349 40.5844 68.8377 36.8732 70.5137 32.683L78.056 13.1689H90.0278L83.3236 30.4084C82.8447 31.6055 82.9644 32.683 83.4433 33.521C83.9222 34.3591 84.8799 34.8379 86.0771 34.8379C87.2743 34.8379 88.5912 34.3591 89.9081 33.521C91.1053 32.683 92.063 31.6055 92.5419 30.4084L99.2461 13.1689H111.098V13.0492ZM112.535 13.0492H123.19L121.993 16.2816C126.183 12.9295 131.091 11.3732 135.281 12.0915C137.915 12.5703 139.711 14.1267 140.429 16.521C142.225 14.9647 144.14 13.8872 146.295 13.0492C149.887 11.7323 153.239 11.4929 156.112 12.4506C159.824 13.7675 161.26 17.8379 159.584 22.2675L152.521 41.9013H141.507L147.732 24.6619C148.211 23.4647 148.091 22.3872 147.612 21.4295C147.133 20.5915 146.176 20.1126 144.979 20.1126C143.901 20.1126 142.704 20.5915 141.507 21.4295C140.429 22.2675 139.591 23.345 139.112 24.5422L132.887 41.9013H121.514L127.739 24.6619C128.218 23.4647 128.098 22.2675 127.619 21.4295C127.021 20.5915 126.063 20.1126 124.866 20.2323C123.788 20.2323 122.591 20.7112 121.514 21.5492C120.436 22.3872 119.718 23.4647 119.239 24.5422L112.894 41.9013H101.76L112.535 13.0492Z" fill="#4B4B4B"/>
</svg>
