<svg width="170" height="101" viewBox="0 0 170 101" fill="none" xmlns="http://www.w3.org/2000/svg">
<path d="M51.8052 57.6392H44.6632C44.6632 57.6392 43.0537 60.9587 39.2312 60.9587C36.817 61.0593 34.2017 59.7516 32.9945 57.6392H25.8525C25.8525 57.6392 28.9709 66.9942 39.2312 66.9942C48.1839 66.9942 51.8052 57.6392 51.8052 57.6392Z" fill="#4B4B4B"/>
<path d="M86.0063 55.9291C86.1068 55.9291 88.521 49.0889 88.521 49.0889L91.0358 55.9291H97.8761L91.9412 40.6392H85.1009L79.166 55.9291H86.0063Z" fill="#4B4B4B"/>
<path d="M50.1956 74.0356H47.0773L45.2666 82.5859H46.3731L47.0773 79.0652H49.7932C51.8051 79.0652 52.811 77.7575 52.811 76.2487C52.9116 74.8404 52.0062 74.0356 50.1956 74.0356ZM49.592 78.1599H47.2784L47.9826 75.0416H49.592C50.598 75.0416 51.7045 75.0416 51.7045 76.3493C51.8051 77.5564 50.8997 78.1599 49.592 78.1599Z" fill="#4B4B4B"/>
<path d="M69.0059 55.9291L79.1657 40.6392H70.716L65.5858 49.9942H64.7811L58.8461 40.6392H51.2012L61.3609 55.9291H69.0059Z" fill="#4B4B4B"/>
<path d="M69.0063 57.6392H61.3613V66.9942H69.0063V57.6392Z" fill="#4B4B4B"/>
<path d="M15.4911 57.6392C15.994 58.0415 16.2958 58.6452 16.2958 59.2487C16.2958 60.0535 15.4911 61.7635 12.0709 61.7635H7.8461V55.8285H21.426C20.7218 54.8226 19.8165 54.0179 18.9112 53.3137C17.7041 52.6096 18.1065 52.5091 18.1065 52.5091C18.1065 52.5091 20.6212 49.9942 20.6212 47.3788C20.6212 44.7634 18.6094 40.5386 12.0709 40.5386H1.00586V66.9942H14.5857C17.9053 66.8936 20.923 64.8818 22.2307 61.864C22.6331 60.4557 22.6331 59.0475 22.2307 57.6392H15.4911ZM7.54432 45.2664C7.54432 45.2664 9.95852 45.367 12.1715 45.2664C14.3846 45.1658 14.4851 51.2014 11.9704 51.2014C9.45556 51.2014 7.54432 51.2014 7.54432 51.2014V45.2664Z" fill="#4B4B4B"/>
<path d="M32.4913 55.9291C32.4913 55.9291 30.9824 46.5741 38.6274 46.5741C46.9765 46.5741 45.2664 55.9291 45.2664 55.9291H52.1067C52.1067 55.9291 54.1185 40.6392 38.5268 40.6392C22.9351 40.6392 25.651 55.9291 25.651 55.9291H32.4913Z" fill="#4B4B4B"/>
<path d="M154.006 53.3137C154.006 47.2782 148.071 40.5386 142.941 40.5386H131.071V55.8285H137.006V45.6689H141.231C144.249 45.6689 148.071 50.0948 148.071 53.3137C148.071 56.5327 144.852 61.864 141.231 61.864H137.006V57.6392H131.071V66.9942H143.846C148.876 66.9942 154.006 59.4498 154.006 53.3137Z" fill="#4B4B4B"/>
<path d="M97.0709 32.0889L91.9408 22.7339L86.0059 38.9292H94.5562L97.0709 32.0889Z" fill="#4B4B4B"/>
<path d="M155.213 43.3547C156.722 43.3547 158.13 42.55 158.834 41.2423C159.237 40.6388 159.438 39.834 159.337 39.1299C159.337 38.4257 159.136 37.621 158.834 37.0174C158.432 36.4139 157.929 35.9109 157.325 35.5086C156.722 35.1062 155.917 34.905 155.213 35.0056C154.509 35.0056 153.704 35.2068 153.1 35.6092C152.497 36.0115 151.893 36.5145 151.592 37.118C150.887 38.4257 150.887 40.0352 151.592 41.3429C152.396 42.6506 153.704 43.4553 155.213 43.3547ZM152.296 37.4198C152.597 36.9169 153 36.5145 153.503 36.2127C154.609 35.6092 155.917 35.6092 157.024 36.2127C157.527 36.5145 157.929 36.9169 158.231 37.4198C158.834 38.5263 158.834 39.834 158.231 40.9405C157.929 41.4435 157.527 41.8458 157.024 42.1476C156.521 42.4494 155.917 42.6506 155.313 42.6506C154.71 42.6506 154.106 42.55 153.603 42.2482C153.1 41.9464 152.698 41.5441 152.396 41.0411C151.692 39.834 151.692 38.5263 152.296 37.4198Z" fill="#4B4B4B"/>
<path d="M154.71 40.1362H155.515L156.42 41.4439H157.627L156.621 39.935C156.923 39.8344 157.124 39.6333 157.225 39.3315C157.426 39.0297 157.426 38.7279 157.426 38.4262C157.426 37.9232 157.225 37.5208 156.923 37.2191C156.521 36.9173 156.018 36.7161 155.414 36.8167H153.402V41.4439H154.609V40.1362H154.71ZM154.609 37.8226H155.314C155.515 37.8226 155.817 37.9232 155.917 38.0238C156.118 38.1244 156.118 38.3256 156.118 38.5268C156.118 38.7279 156.018 38.9291 155.917 39.0297C155.716 39.1303 155.515 39.2309 155.314 39.2309H154.609V37.8226Z" fill="#4B4B4B"/>
<path d="M113.166 57.6392L119.202 66.9942H127.651L120.811 57.6392H113.166Z" fill="#4B4B4B"/>
<path d="M112.361 57.6392H106.426V66.9942H112.361V57.6392Z" fill="#4B4B4B"/>
<path d="M103.811 38.9292L106.426 32.0889L101.296 22.7339L95.3613 38.9292H103.811Z" fill="#4B4B4B"/>
<path d="M74.9404 66.9942H82.5854L84.2955 61.864H92.8458L94.5558 66.9942H102.201L98.7807 57.6392H78.3605L74.9404 66.9942Z" fill="#4B4B4B"/>
<path d="M113.166 38.9292L115.781 32.0889L110.651 22.7339L104.716 38.9292H113.166Z" fill="#4B4B4B"/>
<path d="M104.112 76.4497L103.811 77.7574C103.509 79.1657 103.006 80.4734 102.201 81.7811H101.497L100.894 84.5976H101.899L102.302 82.6864H106.929L106.527 84.5976H107.533L108.136 81.7811H107.331L108.438 76.4497H104.112ZM106.225 81.6805H103.207C103.911 80.4734 104.414 79.1657 104.716 77.7574L104.817 77.1538H107.13L106.225 81.6805Z" fill="#4B4B4B"/>
<path d="M139.621 76.2485C139.521 76.2485 139.319 76.2485 139.219 76.2485C137.307 76.2485 135.899 77.9586 135.899 80.1716C135.799 81.4793 136.704 82.6864 138.012 82.787C138.112 82.787 138.313 82.787 138.414 82.787C139.722 82.8876 140.929 81.9823 141.231 80.6746H140.225C140.023 81.4793 139.319 81.9823 138.515 81.9823C137.71 81.9823 136.905 81.3787 136.905 80.574C136.905 80.4734 136.905 80.3728 136.905 80.2722C136.905 80.1716 136.905 79.9704 136.905 79.8698H141.532C141.633 79.5681 141.633 79.1657 141.633 78.8639C141.734 77.5562 140.828 76.3491 139.621 76.2485ZM140.627 78.6627C140.627 78.7633 140.627 78.7633 140.627 78.8639H137.106C137.207 77.858 138.112 77.0533 139.219 76.9527C140.023 76.8521 140.728 77.4556 140.728 78.2604C140.627 78.4616 140.627 78.5621 140.627 78.6627Z" fill="#4B4B4B"/>
<path d="M110.751 79.7692C110.349 81.2781 109.946 81.7811 109.443 81.7811C109.242 81.7811 109.142 81.7811 108.94 81.6805L108.739 82.4852C108.94 82.5858 109.242 82.5858 109.443 82.5858C110.449 82.5858 111.153 81.8817 111.656 79.9704L112.361 77.2544H114.473L113.366 82.5858H114.372L115.68 76.4497H111.556L110.751 79.7692Z" fill="#4B4B4B"/>
<path d="M130.568 81.3787L129.763 76.4497H128.355L127.047 82.5858H128.053L129.059 77.6568H129.159L129.863 82.5858H130.869L133.686 77.6568L132.68 82.5858H133.686L134.994 76.4497H133.485L130.568 81.3787Z" fill="#4B4B4B"/>
<path d="M117.19 78.0594C117.19 78.16 117.19 78.2606 117.19 78.3612C117.19 79.1659 117.692 79.7694 118.497 79.87L115.781 82.4854H117.089L119.503 79.87H120.811L120.207 82.4854H121.213L122.521 76.3493H119.302C118.296 76.2487 117.29 77.0535 117.19 78.0594ZM121.414 77.2547L121.012 79.1659H119.604C119 79.1659 118.195 79.1659 118.195 78.3612C118.195 77.657 118.698 77.2547 119.604 77.2547H121.414Z" fill="#4B4B4B"/>
<path d="M147.065 74.2368C146.059 74.2368 145.053 74.7398 144.349 75.5445C143.444 76.9528 143.042 78.5623 142.941 80.1717C142.74 81.4794 143.645 82.5859 144.953 82.6865C145.154 82.6865 145.255 82.6865 145.456 82.6865C147.568 82.6865 148.876 80.7753 148.876 78.7635C148.977 77.5564 148.071 76.4499 146.864 76.3493C146.663 76.3493 146.562 76.3493 146.361 76.3493C145.456 76.3493 144.651 76.8522 144.148 77.6569C144.651 76.1481 145.456 75.3433 146.764 75.2428C147.87 75.1422 149.178 75.2428 149.48 73.9351H148.474C148.272 74.1362 147.87 74.1362 147.065 74.2368ZM146.261 77.154C147.065 77.0534 147.769 77.657 147.769 78.4617C147.769 78.5623 147.769 78.6629 147.769 78.7635C147.769 80.4735 146.764 81.7812 145.556 81.7812C144.752 81.7812 143.947 81.1777 143.947 80.2723C143.947 80.1717 143.947 80.0712 143.947 79.9706C143.947 78.7635 144.752 77.154 146.261 77.154Z" fill="#4B4B4B"/>
<path d="M157.929 79.7692C157.526 81.2781 157.124 81.7811 156.621 81.7811C156.42 81.7811 156.319 81.7811 156.118 81.6805L155.917 82.4852C156.118 82.5858 156.42 82.5858 156.621 82.5858C157.627 82.5858 158.331 81.8817 158.834 79.9704L159.538 77.2544H161.651L160.544 82.5858H161.55L162.858 76.4497H158.734L157.929 79.7692Z" fill="#4B4B4B"/>
<path d="M153.805 76.2485C153.704 76.2485 153.503 76.2485 153.402 76.2485C151.491 76.2485 150.083 77.9586 150.083 80.1716C149.982 81.4793 150.888 82.6864 152.195 82.787C152.296 82.787 152.497 82.787 152.598 82.787C153.905 82.8876 155.112 81.9823 155.414 80.6746H154.408C154.207 81.4793 153.503 81.9823 152.698 81.9823C151.692 81.8817 150.988 80.9763 151.089 80.071C151.089 79.9704 151.089 79.9704 151.089 79.8698H155.716C155.817 79.5681 155.817 79.1657 155.817 78.8639C155.917 77.5562 155.012 76.3491 153.805 76.2485ZM154.811 78.6627C154.811 78.7633 154.811 78.8639 154.811 78.8639H151.29C151.391 77.858 152.296 77.0533 153.402 76.9527C154.207 76.8521 154.911 77.4556 154.911 78.2604C154.811 78.4616 154.811 78.5621 154.811 78.6627Z" fill="#4B4B4B"/>
<path d="M95.2608 76.2485C95.1602 76.2485 94.959 76.2485 94.8584 76.2485C92.9472 76.2485 91.5389 77.9586 91.5389 80.1716C91.4383 81.4793 92.3436 82.6864 93.6513 82.787C93.7519 82.787 93.9531 82.787 94.0537 82.787C95.3614 82.8876 96.5685 81.9823 96.8702 80.6746H95.8643C95.6631 81.4793 94.959 81.9823 94.1543 81.9823C93.3495 81.9823 92.5448 81.3787 92.5448 80.4734C92.5448 80.3728 92.5448 80.2722 92.5448 80.1716C92.5448 80.071 92.5448 79.8698 92.5448 79.7692H97.172C97.2726 79.4675 97.2726 79.0651 97.2726 78.7633C97.4738 77.5562 96.5685 76.3491 95.2608 76.2485ZM96.3673 78.6627C96.3673 78.7633 96.3673 78.7633 96.3673 78.8639H92.8466C92.9472 77.858 93.8525 77.0533 94.959 76.9527C95.7637 76.8521 96.4679 77.4556 96.4679 78.2604C96.3673 78.4616 96.3673 78.5621 96.3673 78.6627Z" fill="#4B4B4B"/>
<path d="M74.2364 76.2485C74.1358 76.2485 73.9346 76.2485 73.834 76.2485C71.9227 76.2485 70.5145 77.9586 70.5145 80.1716C70.4139 81.4793 71.3192 82.6864 72.6269 82.787C72.7275 82.787 72.9287 82.787 73.0293 82.787C74.3369 82.8876 75.544 81.9823 75.8458 80.6746H74.8399C74.6387 81.4793 73.9346 81.9823 73.1298 81.9823C72.1239 81.8817 71.4198 81.0769 71.5204 80.071C71.5204 79.9704 71.5204 79.8698 71.5204 79.8698H76.1476C76.2482 79.5681 76.2482 79.1657 76.2482 78.8639C76.3488 77.5562 75.4435 76.3491 74.2364 76.2485ZM75.2423 78.6627C75.2423 78.7633 75.2423 78.8639 75.2423 78.8639H71.7216C71.8222 77.858 72.7275 77.0533 73.834 76.9527C74.6387 76.8521 75.3429 77.4556 75.3429 78.2604C75.3429 78.4616 75.2423 78.5621 75.2423 78.6627Z" fill="#4B4B4B"/>
<path d="M67.4975 81.6805H64.8821L66.0892 76.4497H65.0833L63.8762 81.6805H61.3614L62.4679 76.4497H61.462L60.1543 82.5858H68.3022L69.6099 76.4497H68.604L67.4975 81.6805Z" fill="#4B4B4B"/>
<path d="M168.592 76.3491L164.87 81.3787L165.876 76.3491H164.87L163.562 82.5858H164.971L168.793 77.5562L167.687 82.5858H168.693L170 76.3491H168.592Z" fill="#4B4B4B"/>
<path d="M57.2364 76.2485C57.1358 76.2485 56.9346 76.2485 56.834 76.2485C54.9227 76.2485 53.5145 77.9586 53.5145 80.1716C53.4139 81.4793 54.3192 82.6864 55.6269 82.787C55.7275 82.787 55.9287 82.787 56.0293 82.787C57.3369 82.8876 58.544 81.9823 58.8458 80.6746H57.8399C57.6387 81.4793 56.9346 81.9823 56.1298 81.9823C55.3251 81.9823 54.5204 81.3787 54.5204 80.4734C54.5204 80.3728 54.5204 80.2722 54.5204 80.1716C54.5204 80.071 54.5204 79.8698 54.5204 79.7692H59.1476C59.2482 79.4675 59.2482 79.0651 59.2482 78.7633C59.4494 77.5562 58.544 76.3491 57.2364 76.2485ZM58.3429 78.6627C58.3429 78.7633 58.3429 78.7633 58.3429 78.8639H54.8221C54.9227 77.858 55.8281 77.0533 56.9346 76.9527C57.7393 76.8521 58.4434 77.4556 58.4434 78.2604C58.3429 78.4616 58.3429 78.5621 58.3429 78.6627Z" fill="#4B4B4B"/>
<path d="M85.503 81.3787L86.6095 76.4497H85.6036L84.2959 82.5858H85.6036L89.4261 77.5562L88.3196 82.5858H89.3255L90.6332 76.4497H89.3255L85.503 81.3787Z" fill="#4B4B4B"/>
<path d="M81.9827 78.8639H78.965L79.4679 76.4497H78.462L77.1543 82.5858H78.1602L78.7638 79.6686H81.7815L81.2786 82.5858H82.2845L83.5922 76.4497H82.5863L81.9827 78.8639Z" fill="#4B4B4B"/>
<path d="M118.296 40.6392H106.426V55.9291H120.006C122.42 55.9291 125.136 51.3019 125.136 48.2841C125.136 45.1658 121.716 40.6392 118.296 40.6392ZM117.29 51.2013C114.473 51.2013 112.361 51.2013 112.361 51.2013V45.2664C112.361 45.2664 114.071 45.2664 117.29 45.2664C120.509 45.367 120.106 51.2013 117.29 51.2013Z" fill="#4B4B4B"/>
</svg>
