<svg width="170" height="37" viewBox="0 0 170 37" fill="none" xmlns="http://www.w3.org/2000/svg">
<path fill-rule="evenodd" clip-rule="evenodd" d="M101.15 14.6622L96.687 24.6497L90.6308 14.6622H80.112L74.162 27.6247L71.187 14.556H61.7308C61.7308 14.556 60.3495 14.556 59.1808 15.0872C58.2245 15.5122 57.4808 16.1497 57.4808 16.1497L48.662 23.906C43.2433 28.156 33.6808 30.706 31.0245 30.8122C18.2745 31.3435 15.6183 22.7372 16.5745 18.5935C18.8058 7.9685 35.2745 5.52475 43.8808 5.52475C47.9183 5.52475 51.3183 6.37475 53.9745 7.01225L56.5245 2.54975L54.5058 2.12475C52.2745 1.806 48.662 1.06224 42.6058 1.06224C18.062 0.955995 5.52452 7.86225 1.69952 16.681C-2.65673 26.6685 4.67452 35.5935 25.1808 35.5935C28.8995 35.5935 36.2308 35.2747 43.137 32.7247H49.937L53.337 29.6435H63.6433L64.0683 32.9372H75.437V32.831H81.4933L86.2745 22.3122L92.5433 32.831H102.318L110.712 14.556H101.15V14.6622ZM57.2683 26.1372L62.7933 20.931L63.3245 26.031L57.2683 26.1372Z" fill="#4B4B4B"/>
<path fill-rule="evenodd" clip-rule="evenodd" d="M128.669 14.6621H113.263L104.763 32.9371H120.169C132.494 33.0434 137.488 28.2621 139.188 24.6496C141.1 20.6121 139.506 14.6621 128.669 14.6621ZM130.156 23.4809C128.988 28.0496 122.188 28.3684 119.85 28.3684H117.088L121.125 19.2309H123.888C126.544 19.2309 131.219 19.6559 130.156 23.4809Z" fill="#4B4B4B"/>
<path fill-rule="evenodd" clip-rule="evenodd" d="M158.844 14.5562L151.194 22.2062L148.644 14.6623H139.188L145.35 28.5812L139.188 34.6373H147.263C147.263 34.6373 148.856 34.4248 149.494 34.2123C150.131 33.9998 151.087 33.0435 151.087 33.0435L169.469 14.5562H158.844Z" fill="#4B4B4B"/>
</svg>
