<svg width="170" height="40" viewBox="0 0 170 40" fill="none" xmlns="http://www.w3.org/2000/svg">
<g clip-path="url(#clip0_157_5894)">
<path d="M168.47 0H37.6836V13.3167H168.47V0Z" fill="#4B4B4B"/>
<path d="M37.6836 26.8033V39.0999H60.9736C60.9736 39.0999 60.9736 36.7199 60.9736 36.4933C60.9736 36.2099 60.8603 36.1533 60.6336 36.1533C60.407 36.1533 45.3903 36.1533 45.3903 36.1533V31.7899H58.5936V29.1833C58.5936 28.9566 58.4803 28.8433 58.2536 28.8433H45.3903V24.3666H60.9736V21.7599C60.9736 21.5333 60.8603 21.4199 60.6336 21.4199H43.067C40.0636 21.4199 37.6836 23.8566 37.6836 26.8033Z" fill="#4B4B4B"/>
<path d="M69.5299 21.4199H87.3232C87.5499 21.4199 87.6632 21.4766 87.6632 21.7599V24.3666H71.8532V35.8699H84.6032V31.7899H76.6699V29.1833C76.6699 28.9566 76.7832 28.8433 77.0099 28.8433C78.9932 28.8433 87.0966 28.8433 87.2099 28.8433C87.4366 28.8433 87.5499 28.9566 87.5499 29.1833V39.0999H64.0332V26.8599C64.1466 23.8566 66.5266 21.4199 69.5299 21.4199Z" fill="#4B4B4B"/>
<path d="M96.5601 21.4199H114.353C114.58 21.4199 114.693 21.4766 114.693 21.7599V24.3666H98.8834V35.8699H111.633V31.7899H103.7C103.7 31.7899 103.7 29.4099 103.7 29.1833C103.7 28.9566 103.813 28.8433 104.04 28.8433C106.023 28.8433 114.127 28.8433 114.24 28.8433C114.467 28.8433 114.58 28.9566 114.58 29.1833V39.0999H91.1201V26.8599C91.1768 23.8566 93.6134 21.4199 96.5601 21.4199Z" fill="#4B4B4B"/>
<path d="M118.263 26.8033V39.0999H141.553V36.4933C141.553 36.2099 141.44 36.1533 141.213 36.1533C140.987 36.1533 125.97 36.1533 125.97 36.1533V31.7899H139.173V29.1833C139.173 28.9566 139.06 28.8433 138.833 28.8433H126.027V24.3666H141.667V21.7599C141.667 21.5333 141.553 21.4199 141.327 21.4199H123.647C120.7 21.4199 118.263 23.8566 118.263 26.8033Z" fill="#4B4B4B"/>
<path d="M0 21.4199H25.67V24.7633H12.07V28.5599H25.67V31.9599H12.1267V35.8133H25.67V39.0999H0V21.4199Z" fill="#4B4B4B"/>
<path d="M163.88 21.4199C166.487 21.4199 168.527 24.0266 168.527 26.5766C168.527 29.1833 166.43 31.7333 163.88 31.7333H161.783L169.717 38.4766C169.717 38.4766 170.51 39.0999 169.66 39.0999H161.273C160.933 39.0999 160.707 38.8733 160.367 38.6466C160.65 38.8733 152.433 31.7899 152.433 31.7899V39.1566H144.727V26.8599C144.727 23.8566 147.107 21.4766 150.11 21.4766H163.88V21.4199ZM162.747 28.8433C163.54 28.8433 164.73 28.0499 164.73 26.5766C164.73 24.9899 163.653 24.3099 162.747 24.3099H152.433V28.7866L162.747 28.8433Z" fill="#4B4B4B"/>
</g>
<defs>
<clipPath id="clip0_157_5894">
<rect width="170" height="40" fill="white"/>
</clipPath>
</defs>
</svg>
