<svg width="170" height="35" viewBox="0 0 170 35" fill="none" xmlns="http://www.w3.org/2000/svg">
<path d="M64.8836 8.82324H56.8936V26.8432H64.8836V8.82324Z" fill="#4B4B4B"/>
<path d="M32.243 8.82324H28.2197V17.8332H36.2664V12.8466C36.2664 10.6366 34.453 8.82324 32.243 8.82324Z" fill="#4B4B4B"/>
<path d="M121.947 8.82324H113.957V34.8899H121.947V8.82324Z" fill="#4B4B4B"/>
<path d="M121.21 9.67334H114.693V33.9833H121.21V9.67334Z" fill="#4B4B4B"/>
<path d="M112.143 12.8466L112.087 12.5066C111.917 10.4099 110.217 8.7666 108.063 8.7666C107.893 8.7666 107.667 8.7666 107.497 8.82327H104.04V12.2799C104.04 12.4499 103.983 12.6199 103.983 12.8466C103.983 13.0166 103.983 13.2433 104.04 13.4133V13.9799V14.3199H112.03V14.2066H112.087V12.8466H112.143Z" fill="#4B4B4B"/>
<path d="M137.53 8.82324C135.433 8.82324 133.677 10.4666 133.563 12.5632V12.8466V14.1499V14.3199H141.553V13.9799V12.6199V8.87991L137.53 8.82324Z" fill="#4B4B4B"/>
<path d="M9.63284 8.82327V13.4133C9.63284 13.5833 9.57617 13.7533 9.57617 13.9799C9.57617 14.2066 9.57617 14.3766 9.63284 14.5466V20.3266C9.63284 20.4966 9.57617 20.6666 9.57617 20.8933C9.57617 21.0633 9.57617 21.2899 9.63284 21.4599V26.8999H17.6228V20.7799C17.6228 19.3066 16.8295 18.0599 15.6962 17.3233C16.7728 16.6433 17.5095 15.5099 17.6228 14.1499V8.7666H9.63284V8.82327Z" fill="#4B4B4B"/>
<path d="M74.1199 12.7899C74.1199 10.5799 72.3066 8.7666 70.0966 8.7666C69.9266 8.7666 69.6999 8.7666 69.5299 8.82327H66.0732V26.8433H74.0632V13.3566C74.1199 13.1299 74.1199 12.9599 74.1199 12.7899Z" fill="#4B4B4B"/>
<path d="M150.847 8.82324H142.857V26.8432H150.847V8.82324Z" fill="#4B4B4B"/>
<path d="M160.65 8.82324H152.66V26.8432H160.65V8.82324Z" fill="#4B4B4B"/>
<path d="M166.033 8.82324H162.01V26.8432H170V12.7899C170 10.5799 168.243 8.82324 166.033 8.82324Z" fill="#4B4B4B"/>
<path d="M111.123 12.3933C111.123 10.8633 109.763 9.67334 108.007 9.67334H104.833V12.1667V13.13V13.3567H111.067V13.3H111.123V12.3933Z" fill="#4B4B4B"/>
<path d="M27.1433 8.82324H19.1533V26.8432H27.1433V8.82324Z" fill="#4B4B4B"/>
<path d="M7.99 0.833496H0V26.7868H7.99V0.833496Z" fill="#4B4B4B"/>
<path d="M150.11 9.56006H143.593V25.9367H150.11V9.56006Z" fill="#4B4B4B"/>
<path d="M159.97 9.56006H153.453V25.9367H159.97V9.56006Z" fill="#4B4B4B"/>
<path d="M166.033 9.56006H162.747V25.9367H169.263V13.1867C169.263 11.2034 167.847 9.56006 166.033 9.56006Z" fill="#4B4B4B"/>
<path d="M137.643 9.56006C136 9.56006 134.64 10.7501 134.47 12.2801V12.5067V13.4701V13.5834H140.76V13.3567V12.3367V9.61673L137.643 9.56006Z" fill="#4B4B4B"/>
<path d="M140.193 15.5102H139.4H137.53C136 15.5102 134.64 16.4169 133.96 17.6636C133.677 18.1169 133.563 18.5702 133.563 18.8536V22.8769C133.563 24.8036 134.923 26.3902 136.737 26.7869H138.437H138.89H141.61V17.0969V16.8136V15.4536L140.193 15.5102Z" fill="#4B4B4B"/>
<path d="M139.683 16.3032H139.06H137.587C136.34 16.3032 135.263 17.0399 134.753 18.1732C134.527 18.5699 134.413 18.9099 134.413 19.1932V22.5932C134.413 24.2366 135.49 25.5966 136.907 25.9366H138.267H138.663H140.817V17.7199V17.4932V16.3599H139.683V16.3032Z" fill="#4B4B4B"/>
<path d="M46.1833 22.3666V18.8533V16.8133V13.3566C46.1833 13.1866 46.24 13.0166 46.24 12.79C46.24 12.62 46.24 12.3933 46.1833 12.2233V8.76663H42.7267C42.5567 8.76663 42.3867 8.70996 42.16 8.70996C39.95 8.70996 38.1367 10.5233 38.1367 12.7333V16.7566V18.7966V22.82C38.1367 24.8033 39.5533 26.4466 41.48 26.7866H42.16H42.84H46.1267V23.3866C46.1267 23.2166 46.1833 23.0466 46.1833 22.82C46.24 22.7066 46.1833 22.5366 46.1833 22.3666Z" fill="#4B4B4B"/>
<path d="M51.1132 8.7666C50.9432 8.7666 50.7166 8.7666 50.5466 8.82327H47.0899V12.2799C47.0899 12.4499 47.0332 12.6199 47.0332 12.8466C47.0332 13.0166 47.0332 13.2433 47.0899 13.4133V16.8699V18.9099V22.3666C47.0899 22.5366 47.0332 22.7066 47.0332 22.9333C47.0332 23.1033 47.0332 23.3299 47.0899 23.4999V26.8999H50.4332H51.1132H51.7932C53.6632 26.5599 55.1366 24.9166 55.1366 22.9333V18.9099V16.8699V12.8466C55.1366 10.5799 53.3799 8.7666 51.1132 8.7666Z" fill="#4B4B4B"/>
<path d="M79.8436 8.82324C77.6336 8.82324 75.8203 10.6366 75.8203 12.8466C75.8203 13.0166 75.8203 13.2432 75.877 13.4132V16.8699V18.9099V22.3666C75.877 22.5366 75.8203 22.7066 75.8203 22.9332C75.8203 24.8032 77.067 26.3332 78.8236 26.7866H79.9003H80.9203H83.9236V18.9099V16.8699V8.82324H79.8436Z" fill="#4B4B4B"/>
<path d="M102.793 21.7433V21.4033H94.8037V23.16C94.9737 24.9167 96.2204 26.39 97.9204 26.73H98.8271V26.7867H102.793V21.7433C102.793 21.7433 102.85 21.7433 102.793 21.7433Z" fill="#4B4B4B"/>
<path d="M111.123 17.0399C111.01 16.9832 110.897 16.8699 110.783 16.8132C110.047 16.3032 109.027 15.8499 107.497 15.7366C106.307 15.5099 105.003 15.2266 104.04 14.9432C103.247 14.7166 102.907 14.3199 102.85 14.1499V8.82324H98.8271C96.6171 8.82324 94.8037 10.6366 94.8037 12.8466V16.8699C94.8037 17.3232 95.0871 18.0032 95.7671 18.6266C96.4471 19.1932 97.5804 19.8166 99.3937 19.9866C100.243 20.1566 101.093 20.3266 101.887 20.5532C101.943 20.5532 102 20.6099 102.057 20.6099C102.283 20.6666 102.51 20.7232 102.68 20.7799C102.737 20.7799 102.737 20.7799 102.793 20.8366C103.813 21.1199 104.04 21.6866 104.04 21.6866V26.8999C104.04 26.8999 106.477 26.8999 107.383 26.8999C107.553 26.8999 108.063 26.8999 108.063 26.8999H108.743C110.613 26.5599 112.087 24.9166 112.087 22.9332V18.9099C112.143 18.3999 111.86 17.6632 111.123 17.0399Z" fill="#4B4B4B"/>
<path d="M89.0233 8.82324H85V12.8466V16.8699V18.9099V22.9332V26.8432H88.1733H89.08H89.8733C91.6867 26.4466 93.0467 24.8032 93.0467 22.9332H93.1033V18.9099V16.8699V12.8466C93.0467 10.5799 91.2333 8.82324 89.0233 8.82324Z" fill="#4B4B4B"/>
<path d="M127.5 8.82324H123.477V16.8132V18.8532V26.7866H125.913H126.65H128.35C130.163 26.3899 131.523 24.7466 131.523 22.8766V18.8532V16.8132V12.8466C131.523 10.5799 129.71 8.82324 127.5 8.82324Z" fill="#4B4B4B"/>
<path d="M101.943 22.1968H95.71V22.3668V23.2734V23.4434C95.8233 24.8601 97.1266 25.9934 98.8266 25.9934H101.943V23.4434V22.1968Z" fill="#4B4B4B"/>
<path d="M107.043 16.53C102.623 15.7367 102.283 15.17 101.943 14.49C101.943 13.81 101.943 9.67334 101.943 9.67334H99.3365C97.3531 9.67334 95.7098 11.3167 95.7098 13.3C95.7098 13.3 95.6531 16.7567 95.7098 16.9267C96.5598 18.74 98.9965 19.08 100.3 19.1933C102.057 19.59 104.777 20.0433 104.833 21.2333C104.833 21.46 104.833 25.9933 104.833 25.9933H106.42H107.043H108.233C109.933 25.71 111.237 24.18 111.237 22.3667V18.74C110.897 17.21 108.403 16.6433 107.043 16.53Z" fill="#4B4B4B"/>
<path d="M127.557 9.78662H124.383V16.9833V18.7966V25.9366H125.007H126.933H128.293C129.71 25.5966 130.787 24.1233 130.787 22.4233V18.7966V16.9833V13.3566C130.787 11.43 129.313 9.78662 127.557 9.78662Z" fill="#4B4B4B"/>
</svg>
