<svg width="170" height="51" viewBox="0 0 170 51" fill="none" xmlns="http://www.w3.org/2000/svg">
<g clip-path="url(#clip0_157_5912)">
<path d="M24.0649 13.6883C27.8181 13.6883 30.909 10.5974 30.909 6.84416C30.909 3.09091 27.8181 0 24.0649 0C20.3116 0 17.2207 3.09091 17.2207 6.84416C17.2207 10.5974 20.3116 13.6883 24.0649 13.6883Z" fill="#4B4B4B"/>
<path d="M40.5132 31.0196C41.3963 31.0196 42.0587 30.3574 42.0587 29.4743C42.0587 28.5912 41.3963 27.9287 40.5132 27.9287C39.6301 27.9287 38.9678 28.5912 38.9678 29.4743C39.0782 30.247 39.7405 31.0196 40.5132 31.0196Z" fill="#4B4B4B"/>
<path d="M39.4088 35.8766C40.2919 35.8766 41.0646 35.1039 41.0646 34.2208C41.0646 33.3377 40.2919 32.5649 39.4088 32.5649C38.5257 32.5649 37.7529 33.3377 37.7529 34.2208C37.7529 35.1039 38.4153 35.8766 39.4088 35.8766Z" fill="#4B4B4B"/>
<path d="M36.8698 40.0715C37.8633 40.0715 38.636 39.2988 38.636 38.3053C38.636 37.3118 37.8633 36.5391 36.8698 36.5391C35.8762 36.5391 35.1035 37.3118 35.1035 38.3053C35.1035 39.2988 35.8762 40.0715 36.8698 40.0715Z" fill="#4B4B4B"/>
<path d="M31.2399 42.9419C32.3438 42.9419 33.227 42.0587 33.227 40.9548C33.227 39.8509 32.3438 38.9678 31.2399 38.9678C30.136 38.9678 29.2529 39.8509 29.2529 40.9548C29.2529 42.0587 30.136 42.9419 31.2399 42.9419Z" fill="#4B4B4B"/>
<path d="M24.1756 44.9284C25.5003 44.9284 26.4938 43.9348 26.4938 42.6102C26.4938 41.2855 25.5003 40.292 24.1756 40.292C22.8509 40.292 21.8574 41.2855 21.8574 42.6102C21.8574 43.8245 22.8509 44.9284 24.1756 44.9284Z" fill="#4B4B4B"/>
<path d="M15.123 43.6039C16.558 43.6039 17.7723 42.3895 17.7723 40.9544C17.7723 39.5193 16.558 38.3052 15.123 38.3052C13.6879 38.3052 12.4736 39.5193 12.4736 40.9544C12.4736 42.3895 13.6879 43.6039 15.123 43.6039Z" fill="#4B4B4B"/>
<path d="M6.95415 37.8634C8.61 37.8634 9.93467 36.5387 9.93467 34.8829C9.93467 33.227 8.61 31.9023 6.95415 31.9023C5.29831 31.9023 3.97363 33.227 3.97363 34.8829C3.97363 36.5387 5.29831 37.8634 6.95415 37.8634Z" fill="#4B4B4B"/>
<path d="M4.19462 26.8248C6.18163 26.8248 7.94786 25.169 7.94786 23.0716C7.94786 21.0846 6.29202 19.4287 4.19462 19.4287C2.2076 19.4287 0.551758 21.0846 0.551758 23.0716C0.551758 25.169 2.2076 26.8248 4.19462 26.8248Z" fill="#4B4B4B"/>
<path d="M10.156 16.4479C12.9158 16.4479 15.234 14.1296 15.234 11.3699C15.234 8.61017 12.9158 6.29199 10.156 6.29199C7.39631 6.29199 5.07812 8.61017 5.07812 11.3699C5.07812 14.1296 7.39631 16.4479 10.156 16.4479Z" fill="#4B4B4B"/>
<path d="M60.9355 10.9287C60.9355 9.38323 62.1498 8.16895 63.6953 8.16895C65.2407 8.16895 66.455 9.38323 66.455 10.9287V33.8897H89.3057C90.8511 33.8897 92.0654 35.104 92.0654 36.6495C92.0654 38.1949 90.8511 39.4092 89.3057 39.4092H63.6953C62.1498 39.4092 60.9355 38.1949 60.9355 36.6495V10.9287Z" fill="#4B4B4B"/>
<path d="M127.61 33.8897C129.156 33.8897 130.37 35.104 130.37 36.6495C130.37 38.1949 129.156 39.4092 127.61 39.4092H101.779C100.234 39.4092 99.0195 38.1949 99.0195 36.6495V10.9287C99.0195 9.38323 100.234 8.16895 101.779 8.16895H127.5C129.046 8.16895 130.26 9.38323 130.26 10.9287C130.26 12.4741 129.046 13.6884 127.5 13.6884H104.539V33.8897H127.61Z" fill="#4B4B4B"/>
<path d="M138.429 12.695C137.325 11.5911 137.325 9.82485 138.429 8.83134C139.533 7.72744 141.299 7.72744 142.292 8.83134L155.208 21.6365C156.312 22.7404 156.312 24.5067 155.208 25.5002L141.961 38.6365C140.857 39.7404 139.091 39.7404 138.097 38.6365C136.994 37.5326 136.994 35.7664 138.097 34.7729L149.357 23.6235L138.429 12.695Z" fill="#4B4B4B"/>
<path d="M161.279 19.9802C160.176 21.0841 158.409 21.0841 157.305 19.9802C156.202 18.8763 156.202 17.1101 157.305 16.1166L164.702 8.7205C165.805 7.6166 167.572 7.6166 168.676 8.7205C169.779 9.8244 169.779 11.5906 168.676 12.6945L161.279 19.9802Z" fill="#4B4B4B"/>
<path d="M157.195 31.0197C156.091 29.9158 156.091 28.1496 157.195 27.156C158.299 26.0522 160.065 26.0522 161.059 27.156L168.565 34.6625C169.669 35.7664 169.669 37.5327 168.565 38.5262C167.461 39.6301 165.695 39.6301 164.591 38.5262L157.195 31.0197Z" fill="#4B4B4B"/>
<path d="M61.4873 49.8959V44.4868H62.26V49.2336H64.6886V49.8959H61.4873ZM71.8639 49.8959V44.4868H72.6367V49.8959H71.8639ZM81.0263 45.1493V46.6946H82.9029V47.3571H81.0263V50.0064H80.2535V44.5973H83.5652V45.2595L81.0263 45.1493ZM91.5133 45.1493V46.6946H93.2795V47.3571H91.5133V49.344H93.9418V50.0064H90.7405V44.5973H93.9418V45.2595L91.5133 45.1493Z" fill="#4B4B4B"/>
<path d="M110.721 45.1493V46.6946H112.487V47.3571H110.721V49.344H113.15V50.0064H109.948V44.5973H113.15V45.2595L110.721 45.1493ZM123.305 49.8959L121.981 47.6881L120.656 49.8959H119.883L121.539 47.1363L119.994 44.4868H120.766L121.981 46.4738L123.195 44.4868H123.968L122.312 47.1363L123.968 49.8959H123.305ZM131.916 47.7986V49.8959H131.143V44.4868C131.695 44.4868 132.026 44.4868 132.137 44.4868C133.682 44.4868 134.455 45.0389 134.455 46.0324C134.455 47.2467 133.792 47.909 132.357 47.909C132.357 47.909 132.137 47.909 131.916 47.7986ZM131.916 45.1493V47.1363C132.247 47.1363 132.357 47.1363 132.468 47.1363C133.351 47.1363 133.903 46.8051 133.903 46.0324C133.903 45.37 133.351 45.0388 132.468 45.0388C132.247 45.1492 132.026 45.1493 131.916 45.1493ZM142.624 45.1493V46.6946H144.39V47.3571H142.624V49.344H145.052V50.0064H141.851V44.5973H145.052V45.2595L142.624 45.1493ZM155.318 49.8959L153.883 47.5777C153.663 47.5777 153.442 47.5777 153.111 47.5777V49.8959H152.338V44.4868C152.338 44.4868 152.559 44.4868 152.89 44.4868C153.221 44.4868 153.552 44.4868 153.663 44.4868C154.987 44.4868 155.65 45.0389 155.65 46.0324C155.65 46.3636 155.539 46.6946 155.318 46.9154C155.098 47.2466 154.877 47.3569 154.546 47.4673L156.091 50.0064H155.318V49.8959ZM153.111 45.1493V46.9154C153.331 46.9154 153.442 46.9154 153.663 46.9154C154.104 46.9154 154.435 46.805 154.656 46.6946C154.877 46.5842 154.987 46.253 154.987 45.9219C154.987 45.5907 154.877 45.3699 154.656 45.2595C154.435 45.1492 154.104 45.0388 153.663 45.0388C153.442 45.1492 153.331 45.1493 153.111 45.1493ZM164.812 45.1493V49.8959H164.039V45.1493H162.273V44.4868H166.578V45.1493H164.812Z" fill="#4B4B4B"/>
<path d="M109.396 26.604C108.072 26.604 107.078 25.3897 107.078 23.8442C107.078 22.2988 108.072 21.0845 109.396 21.0845H123.637C124.961 21.0845 125.955 22.2988 125.955 23.8442C125.955 25.3897 124.961 26.604 123.637 26.604H109.396Z" fill="#4B4B4B"/>
</g>
<defs>
<clipPath id="clip0_157_5912">
<rect width="170" height="50.7792" fill="white"/>
</clipPath>
</defs>
</svg>
