<svg width="60" height="42" viewBox="0 0 60 42" fill="none" xmlns="http://www.w3.org/2000/svg">
<path fill-rule="evenodd" clip-rule="evenodd" d="M25.4371 22.7155C24.5638 31.7544 16.9492 38.8227 7.68105 38.8289L4.47902 38.831C3.76758 38.8314 3.19031 39.4094 3.19078 40.1209C3.19125 40.8323 3.76934 41.4096 4.48078 41.4091C4.48078 41.4091 5.7498 41.4083 7.68269 41.407C18.9605 41.3995 28.0989 32.255 28.0987 20.9772C28.0987 20.9772 28.0987 14.4574 28.0986 14.4516C28.0586 6.76531 21.7803 0.535156 14.0494 0.535156C6.29367 0.535156 0 6.80539 0 14.5248C0 22.2441 6.29367 28.5144 14.0494 28.5144C18.7331 28.5144 22.8837 26.2277 25.4371 22.7155Z" fill="#2A6A6F"/>
<path fill-rule="evenodd" clip-rule="evenodd" d="M57.3447 22.7069C56.5009 31.7775 48.8723 38.8788 39.5825 38.885L36.3805 38.8871C35.6691 38.8876 35.0918 39.4655 35.0923 40.1771C35.0927 40.8886 35.6707 41.4657 36.3822 41.4652C36.3822 41.4652 37.6512 41.4644 39.5842 41.4631C50.8618 41.4556 60.0002 32.3111 60.0002 21.0335V14.5248C60.0002 6.80539 53.7066 0.535156 45.9507 0.535156C38.195 0.535156 31.9014 6.80539 31.9014 14.5248C31.9014 22.2441 38.195 28.5144 45.9507 28.5144C50.6384 28.5144 54.7918 26.2238 57.3447 22.7069Z" fill="#2A6A6F"/>
</svg>
