<svg width="12" height="8" viewBox="0 0 12 8" fill="none" xmlns="http://www.w3.org/2000/svg">
<path d="M1.0003 2.58993L5.2903 6.82993C5.38326 6.92366 5.49386 6.99806 5.61572 7.04882C5.73758 7.09959 5.86828 7.12573 6.0003 7.12573C6.13231 7.12573 6.26301 7.09959 6.38487 7.04882C6.50673 6.99806 6.61733 6.92366 6.7103 6.82993L10.9503 2.58993C11.044 2.49697 11.1184 2.38637 11.1692 2.26451C11.22 2.14265 11.2461 2.01195 11.2461 1.87993C11.2461 1.74792 11.22 1.61722 11.1692 1.49536C11.1184 1.3735 11.044 1.2629 10.9503 1.16993C10.7629 0.983683 10.5095 0.879142 10.2453 0.879142C9.98111 0.879142 9.72766 0.983683 9.5403 1.16993L6.0003 4.70993L2.4603 1.16993C2.27404 0.985189 2.02264 0.881038 1.7603 0.879933C1.62869 0.879172 1.49823 0.904397 1.37639 0.954162C1.25455 1.00393 1.14374 1.07725 1.0503 1.16993C0.953221 1.25955 0.874867 1.36752 0.81976 1.48759C0.764653 1.60767 0.733886 1.73747 0.729237 1.86951C0.724588 2.00154 0.746149 2.13319 0.792674 2.25685C0.839199 2.3805 0.909765 2.49371 1.0003 2.58993Z" fill="white"/>
</svg>
