<svg width="22" height="21" viewBox="0 0 22 21" fill="none" xmlns="http://www.w3.org/2000/svg">
<path d="M19.2972 2.74917L19.2964 2.74836C18.769 2.1975 18.1505 1.76316 17.4762 1.46587L17.4749 1.46528C16.7753 1.15566 16.0276 0.998169 15.2743 1.00002L15.2719 1.00002C14.2127 1.00002 13.1767 1.30866 12.272 1.8967L12.272 1.89672C12.0554 2.03752 11.8498 2.19198 11.6551 2.36025L11.0013 2.92538L10.3474 2.36025C10.1527 2.19198 9.94715 2.03752 9.73051 1.89672L9.73048 1.8967C8.82584 1.30866 7.78981 1.00002 6.73063 1.00002C5.96556 1.00002 5.22743 1.15556 4.52766 1.46528L4.52654 1.46578C3.84949 1.76445 3.23632 2.19505 2.70582 2.74867L2.7045 2.75005C2.17879 3.29659 1.75568 3.95109 1.46201 4.67802L19.2972 2.74917ZM19.2972 2.74917C19.8225 3.29666 20.2458 3.9513 20.5405 4.67802M19.2972 2.74917L17.8796 0.550847C18.6766 0.902213 19.4028 1.41347 20.0187 2.05681C20.6342 2.69823 21.1264 3.46138 21.4677 4.30353C21.8217 5.17997 22.0025 6.11068 22 7.06853C22 7.9721 21.8268 8.91366 21.483 9.87151C21.1978 10.672 20.7827 11.5023 20.2556 12.3407C19.4203 13.6676 18.2718 15.0515 16.8457 16.4543M16.8457 16.4543L16.1447 15.7411M16.8457 16.4543L16.1444 15.7414C16.1445 15.7413 16.1446 15.7412 16.1447 15.7411M16.8457 16.4543L16.1447 15.7411M16.1447 15.7411C17.5303 14.3781 18.625 13.0538 19.4093 11.808M16.1447 15.7411C13.8402 18.0063 11.5578 19.5715 11.4788 19.6254L11.4786 19.6256L11 19.9527L10.5214 19.6256L10.5135 19.6202L10.5055 19.615C10.5057 19.6151 10.5053 19.6148 10.5043 19.6141C10.4973 19.6094 10.4609 19.5847 10.3928 19.537C10.3192 19.4855 10.215 19.4116 10.0844 19.3168C9.82307 19.1273 9.45746 18.8552 9.02189 18.5136C8.14932 17.8291 7.0035 16.871 5.85567 15.7415L5.85557 15.7414C4.46999 14.3784 3.37529 13.0543 2.591 11.8085C2.09625 11.0216 1.71783 10.256 1.458 9.53321C1.14854 8.67087 1 7.84372 1 7.06853C1 6.23815 1.15643 5.43468 1.46199 4.67809L16.1447 15.7411ZM19.4093 11.808C19.4092 11.8082 19.4091 11.8083 19.409 11.8085L20.255 12.3404L19.4093 11.808ZM19.4093 11.808C19.9049 11.0196 20.2847 10.2552 20.541 9.53586L20.5418 9.53369C20.8514 8.67118 21 7.84386 21 7.06853V7.06587C21.0022 6.23727 20.8461 5.43463 20.5405 4.67802M20.5405 4.67802C20.5407 4.67841 20.5408 4.67879 20.541 4.67917L21.4677 4.30357L20.5405 4.67802Z" stroke="#4B4B4B" stroke-width="2"/>
</svg>
