<svg width="24" height="24" viewBox="0 0 24 24" fill="none" xmlns="http://www.w3.org/2000/svg">
<path d="M19.1111 4H4.88889C4.65314 4 4.42705 4.08872 4.26035 4.24665C4.09365 4.40458 4 4.61877 4 4.84211V7.02318C4 7.46361 4.18933 7.89645 4.51822 8.20803L9.33333 12.7698V19.158C9.33351 19.3015 9.37233 19.4425 9.44613 19.5678C9.51993 19.6931 9.62626 19.7985 9.75506 19.8739C9.88386 19.9494 10.0309 19.9925 10.1821 19.9991C10.3334 20.0057 10.484 19.9756 10.6196 19.9117L14.1751 18.2275C14.4764 18.0843 14.6667 17.793 14.6667 17.4738V12.7698L19.4818 8.20803C19.8107 7.89645 20 7.46361 20 7.02318V4.84211C20 4.61877 19.9064 4.40458 19.7397 4.24665C19.573 4.08872 19.3469 4 19.1111 4ZM13.1493 11.8257C13.0666 11.9038 13.001 11.9966 12.9563 12.0988C12.9116 12.201 12.8887 12.3105 12.8889 12.4211V16.9534L11.1111 17.7955V12.4211C11.1113 12.3105 11.0884 12.201 11.0437 12.0988C10.999 11.9966 10.9334 11.9038 10.8507 11.8257L5.77778 7.02318V5.68422H18.2231L18.2249 7.01729L13.1493 11.8257Z" fill="white"/>
</svg>
