<svg width="20" height="20" viewBox="0 0 20 20" fill="none" xmlns="http://www.w3.org/2000/svg">
<path d="M15.8337 3.3335H4.16699C3.50395 3.3335 2.86807 3.59689 2.39923 4.06573C1.93038 4.53457 1.66699 5.17045 1.66699 5.8335V14.1668C1.66699 14.8299 1.93038 15.4658 2.39923 15.9346C2.86807 16.4034 3.50395 16.6668 4.16699 16.6668H15.8337C16.4967 16.6668 17.1326 16.4034 17.6014 15.9346C18.0703 15.4658 18.3337 14.8299 18.3337 14.1668V5.8335C18.3337 5.17045 18.0703 4.53457 17.6014 4.06573C17.1326 3.59689 16.4967 3.3335 15.8337 3.3335ZM15.492 5.00016L10.592 9.90016C10.5145 9.97827 10.4224 10.0403 10.3208 10.0826C10.2193 10.1249 10.1103 10.1467 10.0003 10.1467C9.89032 10.1467 9.78139 10.1249 9.67984 10.0826C9.5783 10.0403 9.48613 9.97827 9.40866 9.90016L4.50866 5.00016H15.492ZM16.667 14.1668C16.667 14.3878 16.5792 14.5998 16.4229 14.7561C16.2666 14.9124 16.0547 15.0002 15.8337 15.0002H4.16699C3.94598 15.0002 3.73402 14.9124 3.57774 14.7561C3.42146 14.5998 3.33366 14.3878 3.33366 14.1668V6.17516L8.23366 11.0752C8.70241 11.5433 9.33782 11.8063 10.0003 11.8063C10.6628 11.8063 11.2982 11.5433 11.767 11.0752L16.667 6.17516V14.1668Z" fill="white"/>
</svg>
