<svg width="8" height="12" viewBox="0 0 8 12" fill="none" xmlns="http://www.w3.org/2000/svg">
<path d="M2.59018 11L6.83018 6.70999C6.92391 6.61703 6.9983 6.50643 7.04907 6.38457C7.09984 6.26271 7.12598 6.13201 7.12598 5.99999C7.12598 5.86798 7.09984 5.73728 7.04907 5.61542C6.9983 5.49356 6.92391 5.38296 6.83018 5.28999L2.59018 1.04999C2.49722 0.956266 2.38661 0.881872 2.26476 0.831103C2.1429 0.780334 2.01219 0.754196 1.88018 0.754196C1.74817 0.754196 1.61746 0.780334 1.4956 0.831103C1.37374 0.881872 1.26314 0.956266 1.17018 1.04999C0.983927 1.23736 0.879386 1.49081 0.879386 1.75499C0.879386 2.01918 0.983927 2.27263 1.17018 2.45999L4.71018 5.99999L1.17018 9.53999C0.985434 9.72625 0.881283 9.97765 0.880179 10.24C0.879418 10.3716 0.904642 10.5021 0.954407 10.6239C1.00417 10.7457 1.0775 10.8566 1.17018 10.95C1.2598 11.0471 1.36776 11.1254 1.48784 11.1805C1.60791 11.2356 1.73772 11.2664 1.86975 11.2711C2.00179 11.2757 2.13344 11.2541 2.25709 11.2076C2.38075 11.1611 2.49395 11.0905 2.59018 11Z" fill="#2A6A6F"/>
</svg>
