<svg width="8" height="12" viewBox="0 0 8 12" fill="none" xmlns="http://www.w3.org/2000/svg">
<path d="M2.59018 11L6.83018 6.71002C6.92391 6.61706 6.9983 6.50646 7.04907 6.3846C7.09984 6.26274 7.12598 6.13204 7.12598 6.00002C7.12598 5.86801 7.09984 5.73731 7.04907 5.61545C6.9983 5.49359 6.92391 5.38299 6.83018 5.29002L2.59018 1.05002C2.49722 0.956296 2.38661 0.881902 2.26476 0.831133C2.1429 0.780364 2.01219 0.754226 1.88018 0.754226C1.74817 0.754226 1.61746 0.780364 1.4956 0.831133C1.37374 0.881902 1.26314 0.956296 1.17018 1.05002C0.983927 1.23739 0.879386 1.49084 0.879386 1.75502C0.879386 2.01921 0.983927 2.27266 1.17018 2.46002L4.71018 6.00002L1.17018 9.54002C0.985434 9.72628 0.881283 9.97768 0.880178 10.24C0.879417 10.3716 0.904642 10.5021 0.954406 10.6239C1.00417 10.7458 1.0775 10.8566 1.17018 10.95C1.2598 11.0471 1.36776 11.1255 1.48784 11.1806C1.60791 11.2357 1.73772 11.2664 1.86975 11.2711C2.00179 11.2757 2.13344 11.2542 2.25709 11.2076C2.38074 11.1611 2.49395 11.0906 2.59018 11Z" fill="#4B4B4B"/>
</svg>
