<svg width="16" height="15" viewBox="0 0 16 15" fill="none" xmlns="http://www.w3.org/2000/svg">
<path d="M7.03906 1.00015C7.03906 0.447868 7.48678 0.000152564 8.03906 0.000152588C8.59135 0.000152612 9.03906 0.447868 9.03906 1.00015L7.03906 1.00015ZM8.74617 14.4131C8.35564 14.8037 7.72248 14.8037 7.33196 14.4131L0.967994 8.04918C0.57747 7.65866 0.57747 7.02549 0.967994 6.63497C1.35852 6.24444 1.99168 6.24444 2.38221 6.63497L8.03906 12.2918L13.6959 6.63497C14.0864 6.24444 14.7196 6.24444 15.1101 6.63497C15.5007 7.02549 15.5007 7.65866 15.1101 8.04918L8.74617 14.4131ZM9.03906 1.00015L9.03906 13.706L7.03906 13.706L7.03906 1.00015L9.03906 1.00015Z" fill="#4B4B4B"/>
</svg>
