<svg width="16" height="15" viewBox="0 0 16 15" fill="none" xmlns="http://www.w3.org/2000/svg">
<path opacity="0.5" d="M9 13.7059C9 14.2582 8.55228 14.7059 8 14.7059C7.44772 14.7059 7 14.2582 7 13.7059L9 13.7059ZM7.29289 0.292883C7.68342 -0.0976419 8.31658 -0.0976419 8.70711 0.292883L15.0711 6.65684C15.4616 7.04737 15.4616 7.68053 15.0711 8.07106C14.6805 8.46158 14.0474 8.46158 13.6569 8.07106L8 2.4142L2.34315 8.07106C1.95262 8.46158 1.31946 8.46158 0.928932 8.07106C0.538408 7.68053 0.538408 7.04737 0.928932 6.65684L7.29289 0.292883ZM7 13.7059L7 0.999989L9 0.99999L9 13.7059L7 13.7059Z" fill="#4B4B4B"/>
</svg>
