<svg width="20" height="20" viewBox="0 0 20 20" fill="none" xmlns="http://www.w3.org/2000/svg">
<path d="M9.16634 1.66667C7.51817 1.66667 5.907 2.15541 4.53659 3.07109C3.16618 3.98677 2.09808 5.28826 1.46735 6.81098C0.836619 8.33369 0.671591 10.0092 0.993134 11.6258C1.31468 13.2423 2.10835 14.7271 3.27379 15.8926C4.43923 17.058 5.92408 17.8517 7.54059 18.1732C9.1571 18.4948 10.8327 18.3297 12.3554 17.699C13.8781 17.0683 15.1796 16.0002 16.0953 14.6298C17.0109 13.2593 17.4997 11.6482 17.4997 10C17.4997 8.90566 17.2841 7.82202 16.8653 6.81098C16.4466 5.79993 15.8327 4.88127 15.0589 4.10745C14.2851 3.33363 13.3664 2.7198 12.3554 2.30101C11.3443 1.88222 10.2607 1.66667 9.16634 1.66667ZM9.16634 16.6667C7.8478 16.6667 6.55887 16.2757 5.46254 15.5431C4.36622 14.8106 3.51173 13.7694 3.00715 12.5512C2.50256 11.3331 2.37054 9.99261 2.62778 8.6994C2.88501 7.4062 3.51995 6.21831 4.4523 5.28596C5.38465 4.35361 6.57254 3.71867 7.86574 3.46144C9.15895 3.2042 10.4994 3.33622 11.7176 3.84081C12.9357 4.34539 13.9769 5.19988 14.7095 6.2962C15.442 7.39253 15.833 8.68146 15.833 10C15.833 11.7681 15.1306 13.4638 13.8804 14.7141C12.6301 15.9643 10.9345 16.6667 9.16634 16.6667ZM9.16634 5.00001C8.94533 5.00001 8.73337 5.0878 8.57709 5.24408C8.42081 5.40036 8.33301 5.61232 8.33301 5.83334V9.51667L6.58301 10.525C6.42248 10.616 6.29667 10.7577 6.22533 10.9278C6.15399 11.098 6.14114 11.287 6.1888 11.4653C6.23646 11.6435 6.34194 11.8009 6.48869 11.9128C6.63544 12.0246 6.81516 12.0846 6.99968 12.0833C7.14566 12.0843 7.28934 12.047 7.41634 11.975L9.58301 10.725L9.65801 10.65L9.79134 10.5417C9.82393 10.5004 9.85188 10.4557 9.87468 10.4083C9.90184 10.3636 9.92418 10.3161 9.94135 10.2667C9.96401 10.2137 9.97808 10.1574 9.98301 10.1L9.99968 10V5.83334C9.99968 5.61232 9.91188 5.40036 9.7556 5.24408C9.59932 5.0878 9.38736 5.00001 9.16634 5.00001Z" fill="#878787"/>
</svg>
