<svg width="20" height="20" viewBox="0 0 20 20" fill="none" xmlns="http://www.w3.org/2000/svg">
<path d="M9.16634 1.6665C7.51817 1.6665 5.907 2.15525 4.53659 3.07092C3.16618 3.9866 2.09808 5.28809 1.46735 6.81081C0.836619 8.33353 0.671591 10.0091 0.993134 11.6256C1.31468 13.2421 2.10835 14.727 3.27379 15.8924C4.43923 17.0578 5.92408 17.8515 7.54059 18.173C9.1571 18.4946 10.8327 18.3296 12.3554 17.6988C13.8781 17.0681 15.1796 16 16.0953 14.6296C17.0109 13.2592 17.4997 11.648 17.4997 9.99984C17.4997 8.90549 17.2841 7.82186 16.8653 6.81081C16.4466 5.79976 15.8327 4.8811 15.0589 4.10728C14.2851 3.33346 13.3664 2.71963 12.3554 2.30084C11.3443 1.88205 10.2607 1.6665 9.16634 1.6665ZM9.16634 16.6665C7.8478 16.6665 6.55887 16.2755 5.46254 15.543C4.36622 14.8104 3.51173 13.7692 3.00715 12.5511C2.50256 11.3329 2.37054 9.99244 2.62778 8.69924C2.88501 7.40603 3.51995 6.21814 4.4523 5.28579C5.38465 4.35344 6.57254 3.7185 7.86574 3.46127C9.15895 3.20403 10.4994 3.33606 11.7176 3.84064C12.9357 4.34522 13.9769 5.19971 14.7095 6.29604C15.442 7.39236 15.833 8.6813 15.833 9.99984C15.833 11.7679 15.1306 13.4636 13.8804 14.7139C12.6301 15.9641 10.9345 16.6665 9.16634 16.6665ZM9.16634 4.99984C8.94533 4.99984 8.73337 5.08764 8.57709 5.24392C8.42081 5.4002 8.33301 5.61216 8.33301 5.83317V9.5165L6.58301 10.5248C6.42248 10.6158 6.29667 10.7575 6.22533 10.9277C6.15399 11.0978 6.14114 11.2869 6.1888 11.4651C6.23646 11.6434 6.34194 11.8008 6.48869 11.9126C6.63544 12.0245 6.81516 12.0845 6.99968 12.0832C7.14566 12.0842 7.28934 12.0468 7.41634 11.9748L9.58301 10.7248L9.65801 10.6498L9.79134 10.5415C9.82393 10.5003 9.85188 10.4555 9.87468 10.4082C9.90184 10.3634 9.92418 10.3159 9.94135 10.2665C9.96401 10.2135 9.97808 10.1573 9.98301 10.0998L9.99968 9.99984V5.83317C9.99968 5.61216 9.91188 5.4002 9.7556 5.24392C9.59932 5.08764 9.38736 4.99984 9.16634 4.99984Z" fill="white"/>
</svg>
