<svg width="440" height="227" viewBox="0 0 440 227" fill="none" xmlns="http://www.w3.org/2000/svg">
<path fill-rule="evenodd" clip-rule="evenodd" d="M229.726 2.96011C232.429 5.67791 232.42 10.071 229.706 12.7778L127.18 115.042C120.926 121.28 110.8 121.27 104.559 115.019L2.47194 12.7778C-0.236228 10.0655 -0.236227 5.67238 2.47195 2.9601C5.18592 0.242014 9.59051 0.242018 12.3045 2.9601L104.579 95.3739C110.82 101.625 120.946 101.635 127.2 95.397L219.894 2.94009C222.613 0.227528 227.018 0.236497 229.726 2.96011ZM312.797 10.4983C319.056 4.22944 329.218 4.23978 335.464 10.5213L437.548 113.177C440.251 115.895 440.242 120.288 437.528 122.995C434.809 125.707 430.404 125.698 427.696 122.975L335.444 30.2065C329.198 23.9249 319.036 23.9146 312.777 30.1834L127.203 216.038C120.944 222.307 110.782 222.297 104.536 216.015L2.45194 113.36C-0.2507 110.642 -0.241754 106.249 2.47193 103.542C5.19143 100.829 9.59599 100.838 12.3044 103.562L104.556 196.33C110.802 202.612 120.964 202.622 127.223 196.353L312.797 10.4983ZM312.82 112.421C319.074 106.183 329.2 106.194 335.441 112.444L437.528 214.686C440.236 217.398 440.236 221.791 437.528 224.503C434.814 227.221 430.41 227.221 427.696 224.503L335.422 132.09C329.18 125.839 319.054 125.828 312.8 132.067L220.106 224.523C217.387 227.236 212.982 227.227 210.274 224.503C207.571 221.786 207.58 217.392 210.294 214.686L312.82 112.421Z" fill="#EFEFEF"/>
</svg>
