<svg width="365" height="191" viewBox="0 0 365 191" fill="none" xmlns="http://www.w3.org/2000/svg">
<g opacity="0.07">
<path fill-rule="evenodd" clip-rule="evenodd" d="M190.415 5.64776C192.621 7.86047 192.613 11.4428 190.399 13.6465L108.961 94.6802C102.71 100.9 92.6047 100.89 86.3665 94.6572L5.28262 13.6465C3.07241 11.4383 3.07241 7.85598 5.28262 5.64776C7.49001 3.44236 11.0668 3.44237 13.2742 5.64777L86.3828 78.6904C92.621 84.923 102.726 84.9332 108.977 78.7134L182.423 5.63148C184.635 3.43059 188.212 3.43787 190.415 5.64776ZM256.016 13.8705C262.273 7.61995 272.413 7.63028 278.657 13.8936L359.734 95.2282C361.94 97.4409 361.932 101.023 359.718 103.227C357.506 105.428 353.929 105.421 351.726 103.211L278.64 29.893C272.397 23.6297 262.256 23.6194 256 29.8699L108.984 176.754C102.727 183.004 92.587 182.994 86.3435 176.731L5.26634 95.3961C3.06063 93.1833 3.06792 89.601 5.28263 87.3973C7.49451 85.1964 11.0713 85.2037 13.2742 87.4136L86.3598 160.731C92.6033 166.995 102.744 167.005 109 160.754L256.016 13.8705ZM256.04 96.6974C262.29 90.4776 272.396 90.4879 278.634 96.7205L359.718 177.731C361.928 179.939 361.928 183.522 359.718 185.73C357.51 187.935 353.933 187.935 351.726 185.73L278.617 112.687C272.379 106.455 262.274 106.444 256.023 112.664L182.577 185.746C180.365 187.947 176.788 187.94 174.585 185.73C172.38 183.517 172.387 179.935 174.602 177.731L256.04 96.6974Z" fill="#4B4B4B"/>
</g>
</svg>
