<svg width="420" height="235" viewBox="0 0 420 235" fill="none" xmlns="http://www.w3.org/2000/svg">
<g opacity="0.05">
<path fill-rule="evenodd" clip-rule="evenodd" d="M205.726 6.9601C208.429 9.67789 208.42 14.071 205.706 16.7778L103.18 119.042C96.926 125.28 86.7999 125.27 80.5586 119.019L-21.5281 16.7778C-24.2362 14.0655 -24.2362 9.67236 -21.5281 6.96009V6.96009C-18.8141 4.242 -14.4095 4.242 -11.6955 6.96009L80.5786 99.3739C86.8199 105.625 96.946 105.635 103.2 99.397L195.894 6.94008C198.613 4.22751 203.018 4.23648 205.726 6.9601V6.9601ZM288.797 14.4982C295.056 8.22943 305.218 8.23976 311.464 14.5213L413.548 117.177C416.251 119.895 416.242 124.288 413.528 126.995V126.995C410.809 129.707 406.404 129.698 403.696 126.975L311.444 34.2065C305.198 27.9249 295.036 27.9146 288.777 34.1834L103.203 220.038C96.9438 226.307 86.7821 226.297 80.5356 220.015L-21.5481 117.36C-24.2507 114.642 -24.2418 110.249 -21.5281 107.542V107.542C-18.8086 104.829 -14.404 104.838 -11.6956 107.562L80.5556 200.33C86.8022 206.612 96.9638 206.622 103.223 200.353L288.797 14.4982ZM288.82 116.421C295.074 110.183 305.2 110.194 311.441 116.444L413.528 218.686C416.236 221.398 416.236 225.791 413.528 228.503V228.503C410.814 231.221 406.41 231.221 403.696 228.503L311.421 136.09C305.18 129.839 295.054 129.828 288.8 136.067L196.106 228.523C193.387 231.236 188.982 231.227 186.274 228.503V228.503C183.571 225.786 183.58 221.392 186.294 218.686L288.82 116.421Z" fill="#F5F5F5"/>
</g>
</svg>
