<svg width="134" height="100" viewBox="0 0 134 100" fill="none" xmlns="http://www.w3.org/2000/svg">
<path d="M2.82807 87.2031V99.3904H0V87.2031H2.82807ZM1.95598 87.2031H7.41277V89.7302H1.95598V87.2031ZM1.95598 92.1203H7.2259V94.4856H1.95598V92.1203Z" fill="white"/>
<path d="M9.43095 90.7133C9.76733 89.9415 10.2283 89.2568 10.8138 88.6967C11.4118 88.124 12.0971 87.6883 12.9069 87.3771C13.7042 87.0659 14.5763 86.9165 15.4982 86.9165C16.4451 86.9165 17.3047 87.0659 18.102 87.3771C18.8994 87.6883 19.597 88.124 20.1826 88.6967C20.7806 89.2693 21.2291 89.9415 21.553 90.7133C21.8769 91.4852 22.0389 92.3441 22.0389 93.2902C22.0389 94.2363 21.8769 95.0953 21.5655 95.8795C21.2416 96.6638 20.7931 97.3485 20.2075 97.9336C19.622 98.5186 18.9243 98.9668 18.1269 99.278C17.3296 99.6017 16.4451 99.7511 15.4982 99.7511C14.5389 99.7511 13.6544 99.5892 12.8446 99.278C12.0472 98.9543 11.3496 98.5062 10.764 97.9336C10.1785 97.3485 9.72996 96.6638 9.40604 95.8795C9.08212 95.0953 8.93262 94.2239 8.93262 93.2902C8.93262 92.3566 9.10704 91.4976 9.43095 90.7133ZM12.4833 95.1949C12.7698 95.7426 13.1685 96.1783 13.6917 96.4895C14.2025 96.8007 14.813 96.9626 15.5107 96.9626C16.1959 96.9626 16.7939 96.8007 17.3171 96.4895C17.8279 96.1783 18.2391 95.7426 18.5256 95.1949C18.8122 94.6471 18.9492 94.0122 18.9492 93.2902C18.9492 92.5682 18.8122 91.9333 18.5256 91.3856C18.2515 90.8378 17.8529 90.4021 17.3421 90.0909C16.8313 89.7797 16.2208 89.6179 15.5107 89.6179C14.813 89.6179 14.2025 89.7797 13.6917 90.0909C13.1685 90.4021 12.7698 90.8378 12.4833 91.3856C12.1967 91.9333 12.0597 92.5682 12.0597 93.2902C12.0597 94.0122 12.1967 94.6471 12.4833 95.1949Z" fill="white"/>
<path d="M26.8855 87.2031V99.3904H23.9453V87.2031H26.8855ZM25.7892 87.2031H28.3805C29.427 87.2031 30.2991 87.3774 30.9968 87.7135C31.6945 88.0496 32.2177 88.5227 32.579 89.1202C32.9403 89.7178 33.1147 90.4149 33.1147 91.1991C33.1147 91.971 32.9403 92.6681 32.579 93.2656C32.2177 93.8632 31.6945 94.3362 30.9968 94.6723C30.2991 95.0084 29.427 95.1827 28.3805 95.1827H25.7892V92.9046H28.1812C28.5799 92.9046 28.9162 92.8424 29.2028 92.7179C29.4893 92.5934 29.7011 92.4191 29.8506 92.1826C30.0001 91.9461 30.0749 91.6597 30.0749 91.3236C30.0749 90.9875 30.0001 90.7012 29.8506 90.4647C29.7011 90.2281 29.4769 90.0414 29.2028 89.9169C28.9162 89.7924 28.5799 89.7302 28.1812 89.7302H25.7892V87.2031ZM30.0375 93.8632L33.8498 99.3779H30.3988L26.9852 93.8632H30.0375Z" fill="white"/>
<path d="M38.0361 87.2031V99.3904H35.208V87.2031H38.0361ZM37.164 87.2031H43.3185V89.6182H37.164V87.2031ZM37.164 91.7967H42.9696V94.1619H37.164V91.7967ZM37.164 96.9629H43.3185V99.3779H37.164V96.9629Z" fill="white"/>
<path d="M47.8904 96.253C48.2018 96.5767 48.5382 96.8256 48.8995 96.9999C49.2608 97.1742 49.647 97.2613 50.0581 97.2613C50.4817 97.2613 50.843 97.1493 51.1171 96.9377C51.3912 96.726 51.5407 96.4273 51.5407 96.0538C51.5407 95.7426 51.4535 95.4936 51.2915 95.2944C51.1296 95.1077 50.8679 94.921 50.5066 94.7467C50.1453 94.5724 49.6719 94.3732 49.0739 94.1492C48.7874 94.0496 48.451 93.9002 48.0772 93.7135C47.7035 93.5267 47.3422 93.2902 47.0058 92.9914C46.6694 92.6927 46.3953 92.3317 46.1711 91.9084C45.9468 91.4852 45.8347 90.9748 45.8347 90.3648C45.8347 89.6428 46.0216 89.0203 46.3953 88.4975C46.7691 87.9746 47.2799 87.5763 47.9277 87.3024C48.5756 87.0285 49.2857 86.8916 50.083 86.8916C50.8928 86.8916 51.603 87.0285 52.201 87.29C52.799 87.5514 53.2973 87.8875 53.696 88.2983C54.0947 88.7091 54.3937 89.1199 54.6055 89.5307L52.3629 90.788C52.1885 90.5017 51.9892 90.2403 51.7649 90.0287C51.5407 89.817 51.2915 89.6428 51.0174 89.5183C50.7433 89.3938 50.4568 89.3315 50.1329 89.3315C49.7093 89.3315 49.3978 89.4187 49.1736 89.6054C48.9493 89.7797 48.8372 90.0038 48.8372 90.2776C48.8372 90.5515 48.9493 90.8005 49.1611 91.0121C49.3729 91.2237 49.6844 91.4105 50.083 91.5847C50.4817 91.759 50.9676 91.9458 51.5407 92.1449C51.9643 92.3068 52.3754 92.4935 52.7367 92.7051C53.1104 92.9168 53.4344 93.1782 53.7209 93.4769C54.0075 93.7757 54.2317 94.1243 54.3937 94.5226C54.5556 94.921 54.6428 95.3691 54.6428 95.8795C54.6428 96.4895 54.5182 97.0373 54.2691 97.5228C54.0199 98.0083 53.6835 98.4066 53.2599 98.7303C52.8364 99.0539 52.3505 99.3029 51.8148 99.4647C51.2791 99.6266 50.7184 99.7137 50.1453 99.7137C49.3605 99.7137 48.6254 99.5768 47.9402 99.2905C47.255 99.0041 46.6694 98.6182 46.1711 98.1327C45.6728 97.6472 45.2865 97.1119 45 96.5269L47.0556 95.0455C47.3048 95.5434 47.5789 95.9293 47.8904 96.253Z" fill="white"/>
<path d="M55.3896 87.2031H65.0449V89.8298H61.6812V99.3904H58.741V89.8298H55.3896V87.2031Z" fill="white"/>
<path d="M77.6531 92.7178H83.82C83.8823 93.6888 83.7827 94.61 83.521 95.4565C83.2594 96.303 82.8732 97.0499 82.3375 97.6973C81.8018 98.3446 81.129 98.855 80.3317 99.216C79.5343 99.577 78.6124 99.7638 77.5784 99.7638C76.6066 99.7638 75.7096 99.6144 74.8998 99.3032C74.09 98.9919 73.3799 98.5562 72.7943 97.9836C72.1963 97.411 71.7353 96.7263 71.4114 95.9296C71.075 95.1329 70.9131 94.2615 70.9131 93.2905C70.9131 92.3319 71.075 91.4481 71.4239 90.6762C71.7603 89.892 72.2337 89.2198 72.8566 88.6596C73.4671 88.0994 74.1897 87.6761 75.0119 87.3774C75.8342 87.0786 76.7312 86.9292 77.6905 86.9292C78.5501 86.9292 79.3225 87.0537 80.0077 87.2902C80.693 87.5392 81.3034 87.8753 81.8267 88.311C82.3499 88.7467 82.8109 89.2446 83.1971 89.8173L80.5808 91.1742C80.3067 90.6887 79.933 90.2779 79.4596 89.9667C78.9862 89.643 78.4006 89.4936 77.6905 89.4936C77.0177 89.4936 76.3948 89.643 75.8342 89.9418C75.2735 90.2405 74.825 90.6762 74.4887 91.2364C74.1523 91.7966 73.9903 92.4813 73.9903 93.3029C73.9903 94.0996 74.1523 94.7967 74.4637 95.3818C74.7877 95.9669 75.2237 96.4151 75.7719 96.7387C76.32 97.0624 76.9554 97.2118 77.678 97.2118C78.1141 97.2118 78.5127 97.162 78.874 97.0499C79.2229 96.9379 79.5343 96.7885 79.796 96.5769C80.0576 96.3777 80.2818 96.1412 80.4562 95.8673C80.6307 95.5935 80.7802 95.3071 80.8798 94.9835H77.6406V92.7178H77.6531Z" fill="white"/>
<path d="M88.7419 87.2031V99.3904H85.8018V87.2031H88.7419ZM87.6456 87.2031H90.237C91.2835 87.2031 92.1556 87.3774 92.8532 87.7135C93.5509 88.0496 94.0742 88.5227 94.4355 89.1202C94.7968 89.7178 94.9712 90.4149 94.9712 91.1991C94.9712 91.971 94.7968 92.6681 94.4355 93.2656C94.0742 93.8632 93.5509 94.3362 92.8532 94.6723C92.1556 95.0084 91.2835 95.1827 90.237 95.1827H87.6456V92.9046H90.0376C90.4363 92.9046 90.7727 92.8424 91.0592 92.7179C91.3458 92.5934 91.5576 92.4191 91.7071 92.1826C91.8566 91.9461 91.9313 91.6597 91.9313 91.3236C91.9313 90.9875 91.8566 90.7012 91.7071 90.4647C91.5576 90.2281 91.3333 90.0414 91.0592 89.9169C90.7727 89.7924 90.4363 89.7302 90.0376 89.7302H87.6456V87.2031ZM91.8939 93.8632L95.7062 99.3779H92.2552L88.8416 93.8632H91.8939Z" fill="white"/>
<path d="M100.465 95.6058L100.602 96.2531L99.0823 99.3902H95.7559L102.172 86.4312L108.601 99.3902H105.249L103.792 96.3776L103.891 95.6307L102.172 91.6845L100.465 95.6058ZM99.1944 94.7842H105.237L105.424 97.025H98.9826L99.1944 94.7842Z" fill="white"/>
<path d="M121.134 87.2028V100L112.699 92.5308V99.39H109.871V86.5928L118.293 94.062V87.2028H121.134Z" fill="white"/>
<path d="M122.491 87.2031H132.146V89.8298H128.783V99.3904H125.843V89.8298H122.491V87.2031Z" fill="white"/>
<path d="M72.3069 61.5089L72.3443 61.5338H68.4697L68.4822 61.5089L69.6408 59.5046L69.6533 59.4922L69.6782 59.4424L69.728 59.4922L72.3069 61.5089Z" fill="white"/>
<path d="M84.7403 59.554L95.2303 67.6083V69.5503H87.7802L83.7063 66.4008V61.5333H77.4397L73.6523 58.5955L71.634 57.0394L71.2354 56.7282L71.634 56.0559L74.2752 51.4748L74.3375 51.3628L74.4745 51.4748L77.0908 53.4915L79.9438 55.6825V55.67L84.7403 59.5042V59.554Z" fill="white"/>
<path d="M86.8838 51.4751H79.7576L76.7676 49.085V49.2468L75.9453 48.5995L76.4561 47.6907H74.7618L73.4287 46.6575L80.094 35.1051H74.9985L78.0259 29.8643L82.5109 37.6322H78.8855L86.8838 51.4751Z" fill="white"/>
<path d="M110.479 61.5335H95.2297V63.6124L87.9165 57.9857L86.7205 57.0271L82.2853 53.4917H90.3709L88.6267 50.4667L82.3725 39.6488H86.0104L84.2662 36.6238L79.1956 27.8475L78.6475 27.0632H83.8302L82.086 24.0382L81.7372 23.4407L89.4739 10.0708L103.951 35.105H98.8426L106.118 47.6906H102.48L110.479 61.5335Z" fill="white"/>
<path d="M51.7781 25.0463H51.4043L51.5912 24.7227L51.7781 25.0463Z" fill="white"/>
<path d="M41.3626 53.4917H49.7346L37.3634 63.1145V61.5335H22.1143L30.1126 47.6906H26.4747L33.738 35.105H28.6425L43.1192 10.0708L50.4198 22.7062L49.6474 24.0382L47.9032 27.0632H52.9489L52.9738 27.113L47.4796 36.6238L45.7355 39.6488H49.3609L43.1192 50.4667L41.3626 53.4917Z" fill="white"/>
<path d="M49.2237 37.6323L54.1324 29.1299L57.5958 35.1052H52.5003L58.9662 46.309L57.1722 47.6908H56.1257L56.4621 48.2635L52.3259 51.4752H44.8633L52.8616 37.6323H49.2237Z" fill="white"/>
<path d="M60.1124 57.1516L58.0941 58.7201L54.4687 61.5335H48.8873V65.8781L44.1656 69.5504H37.3633V67.1354L54.8923 53.4917L57.4837 51.475L58.0568 51.0269L58.3184 51.475L60.1124 54.5872L61.134 56.3549L60.1124 57.1516Z" fill="white"/>
<path d="M64.1238 61.5337H59.4893L59.5391 61.5088L62.1304 59.4921L62.6911 59.0439L62.7409 59.1311L62.9402 59.4921L63.5632 60.5627L64.1113 61.5088L64.1238 61.5337Z" fill="white"/>
<path d="M78.8863 37.6323H82.5242L78.0391 29.8643L75.2484 25.0467H80.344L65.8672 0L51.5899 24.723L51.403 25.0467H56.4985L54.1314 29.1298L49.2228 37.6323H52.8606L44.8623 51.4752H52.3249L56.4611 48.2634L57.1837 47.7032L58.9653 46.309L61.9553 43.9811L63.9985 42.3877L65.942 40.8814L67.8855 42.3752L70.1903 44.1554L73.4295 46.6575L74.775 47.6908L75.9461 48.5995L76.7808 49.2469V49.0975L79.7709 51.4752H86.8971L78.8863 37.6323ZM69.6795 59.4423L68.4835 58.5087L68.0475 58.1601L65.942 56.5169L63.8988 58.1103L63.5624 58.3717L62.6903 59.0564L62.1297 59.4921H69.7294L69.6795 59.4423ZM74.339 51.3631L68.2343 46.6575L65.9295 44.8774L63.8863 46.4708L58.0558 51.027L57.4827 51.4752H60.1114V57.1518L61.133 56.355L63.8988 54.2139L65.942 52.6204L68.2468 54.4006L71.2493 56.7285L71.6355 57.0397V51.4752H74.476L74.339 51.3631Z" fill="white"/>
<path d="M57.483 51.4751L54.8916 53.4918H58.0934V58.7202L60.1117 57.1517V51.4751H57.483ZM69.7296 59.492H62.13L59.5386 61.5087H72.3085L69.7296 59.492ZM74.4763 51.4751H71.6357V57.0396L73.654 58.6082V53.4918H77.0925L74.4763 51.4751Z" fill="white"/>
<path d="M107.017 76.6462H96.9509L87.7814 69.5504L83.7075 66.4009L77.4409 61.5335L73.6536 58.5956L71.6353 57.0395L71.2366 56.7283L68.2466 54.4129L65.9418 52.6203L63.8986 54.2137L61.1328 56.3549L60.1112 57.1516L58.093 58.7201L54.4676 61.5335L48.8862 65.8781L44.1644 69.5504L35.0199 76.6462H25.1279L37.3621 67.1354L54.8912 53.4917L57.4825 51.475L58.0556 51.0268L63.8986 46.4831L65.9418 44.8896L68.2466 46.6698L74.3388 51.3629L74.4758 51.475L77.0921 53.4917L79.9451 55.6826V55.6702L84.7416 59.5044V59.5542L95.2316 67.6084L107.017 76.6462Z" fill="white"/>
<path d="M72.3453 61.5334L72.3079 61.4961L69.729 59.4794L69.6791 59.442L68.4831 58.5084L68.0471 58.1598L65.9416 56.5166L63.8984 58.11L63.5621 58.3714L62.69 59.0561L62.1293 59.4918L59.538 61.5085L59.5006 61.5459L40.0654 76.6461V76.7457H40.0779L59.6376 61.5459L59.675 61.5085L62.2664 59.4918L62.7273 59.1308L63.5496 58.4835L65.8295 56.7158L65.9292 56.6411L66.2904 56.915L68.4707 58.608L69.6168 59.4918L69.6293 59.5043L72.2207 61.5085L72.258 61.5459L81.5645 68.7536L72.3453 61.5334Z" fill="white"/>
<path d="M68.0475 58.1725L65.9421 56.5293L63.8989 58.1227L63.5625 58.3841V62.4673H68.4836V58.5086L68.0475 58.1725Z" fill="white"/>
<path d="M81.5779 68.7417L72.3587 61.5339L72.3213 61.4965L69.7424 59.4799L69.6926 59.4425L68.4966 58.5089L68.0605 58.1603L65.955 56.5171L63.9119 58.1105L63.5755 58.3719L62.7034 59.0566L62.1428 59.4923L59.5514 61.509L59.514 61.5463L40.0664 76.6466V76.7461H91.6817V76.6466L81.5779 68.7417ZM65.6685 72.7501H59.5265V69.5508H65.6685V72.7501ZM65.6685 68.7541H59.5265V65.5548H65.6685V68.7541ZM72.6078 72.7501H66.4658V69.5508H72.6078V72.7501ZM72.6078 68.7541H66.4658V65.5548H72.6078V68.7541Z" fill="white"/>
</svg>
