<svg width="50" height="36" viewBox="0 0 50 36" fill="none" xmlns="http://www.w3.org/2000/svg">
<g clip-path="url(#clip0_626_909)">
<path fill-rule="evenodd" clip-rule="evenodd" d="M1.51156 29.52H10.0182C10.41 21.776 17.0872 15.6 25.25 15.6C33.4128 15.6 40.09 21.776 40.4818 29.52H48.9884C48.5935 17.244 38.1348 7.43997 25.25 7.43997C12.3652 7.43997 1.90646 17.244 1.51156 29.52ZM0 30.24C0 16.8343 11.2858 5.99997 25.25 5.99997C39.2142 5.99997 50.5 16.8343 50.5 30.24V30.96H39V30.24C39 22.9576 32.8358 17.04 25.25 17.04C17.6642 17.04 11.5 22.9576 11.5 30.24V30.96H0V30.24Z" fill="#4B4B4B"/>
</g>
<defs>
<clipPath id="clip0_626_909">
<rect width="50" height="36" fill="white"/>
</clipPath>
</defs>
</svg>
