<svg width="433" height="235" viewBox="0 0 433 235" fill="none" xmlns="http://www.w3.org/2000/svg">
<path fill-rule="evenodd" clip-rule="evenodd" d="M218.726 6.9601C221.429 9.67789 221.42 14.071 218.706 16.7778L116.18 119.042C109.926 125.28 99.7999 125.27 93.5586 119.019L-8.52806 16.7778C-11.2362 14.0655 -11.2362 9.67236 -8.52805 6.96009V6.96009C-5.81408 4.242 -1.40949 4.242 1.30449 6.96009L93.5786 99.3739C99.8199 105.625 109.946 105.635 116.2 99.397L208.894 6.94008C211.613 4.22751 216.018 4.23648 218.726 6.9601V6.9601ZM301.797 14.4982C308.056 8.22943 318.218 8.23976 324.464 14.5213L426.548 117.177C429.251 119.895 429.242 124.288 426.528 126.995V126.995C423.809 129.707 419.404 129.698 416.696 126.975L324.444 34.2065C318.198 27.9249 308.036 27.9146 301.777 34.1834L116.203 220.038C109.944 226.307 99.7821 226.297 93.5356 220.015L-8.54806 117.36C-11.2507 114.642 -11.2418 110.249 -8.52807 107.542V107.542C-5.80857 104.829 -1.40401 104.838 1.30441 107.562L93.5556 200.33C99.8022 206.612 109.964 206.622 116.223 200.353L301.797 14.4982ZM301.82 116.421C308.074 110.183 318.2 110.194 324.441 116.444L426.528 218.686C429.236 221.398 429.236 225.791 426.528 228.503V228.503C423.814 231.221 419.41 231.221 416.696 228.503L324.421 136.09C318.18 129.839 308.054 129.828 301.8 136.067L209.106 228.523C206.387 231.236 201.982 231.227 199.274 228.503V228.503C196.571 225.786 196.58 221.392 199.294 218.686L301.82 116.421Z" fill="#EFEFEF"/>
</svg>
