<svg width="100" height="100" viewBox="0 0 100 100" fill="none" xmlns="http://www.w3.org/2000/svg">
<rect x="50" width="50" height="47" rx="12" fill="#FF8E7C"/>
<path fill-rule="evenodd" clip-rule="evenodd" d="M30.042 17.0002C29.822 17.0034 29.6048 17.05 29.4028 17.1372C29.2007 17.2244 29.0179 17.3506 28.8646 17.5086C28.7114 17.6665 28.5908 17.8531 28.5097 18.0577C28.4287 18.2622 28.3887 18.4808 28.3921 18.7008V20.3752H20.0249C17.271 20.3752 15 22.6397 15 25.3936V78.9753C15 81.7292 17.271 84.0002 20.0249 84.0002H24.2077C24.4277 84.0002 24.6456 83.9569 24.8489 83.8728C25.0522 83.7886 25.2369 83.6652 25.3925 83.5096C25.5481 83.3541 25.6715 83.1694 25.7557 82.9661C25.8399 82.7628 25.8833 82.545 25.8833 82.325C25.8833 82.1049 25.8399 81.8871 25.7557 81.6838C25.6715 81.4805 25.5481 81.2958 25.3925 81.1403C25.2369 80.9847 25.0522 80.8613 24.8489 80.7771C24.6456 80.693 24.4277 80.6497 24.2077 80.6497H20.0249C19.0683 80.6497 18.3489 79.9319 18.3489 78.9753V37.1179H30.0666C30.2866 37.1179 30.5045 37.0746 30.7078 36.9904C30.9111 36.9063 31.0958 36.7829 31.2514 36.6273C31.407 36.4717 31.5304 36.2871 31.6146 36.0838C31.6988 35.8805 31.7421 35.6626 31.7421 35.4426C31.7421 35.2226 31.6988 35.0047 31.6146 34.8015C31.5304 34.5982 31.407 34.4135 31.2514 34.2579C31.0958 34.1024 30.9111 33.979 30.7078 33.8948C30.5045 33.8106 30.2866 33.7673 30.0666 33.7674H18.3489V25.3936C18.3489 24.437 19.0683 23.7175 20.0249 23.7175H28.3921V25.3936C28.3872 25.6166 28.4269 25.8384 28.5088 26.0459C28.5907 26.2533 28.7133 26.4424 28.8692 26.6018C29.0252 26.7613 29.2115 26.888 29.4171 26.9745C29.6227 27.061 29.8435 27.1056 30.0666 27.1056C30.2896 27.1056 30.5105 27.061 30.7161 26.9745C30.9217 26.888 31.108 26.7613 31.2639 26.6018C31.4199 26.4424 31.5424 26.2533 31.6244 26.0459C31.7063 25.8384 31.746 25.6166 31.741 25.3936V23.7175H41.7908V25.3936C41.7909 25.8378 41.9675 26.2639 42.2816 26.578C42.5958 26.8921 43.0218 27.0685 43.4661 27.0685C43.9103 27.0685 44.3364 26.8921 44.6505 26.578C44.9647 26.2639 45.1412 25.8378 45.1413 25.3936V23.7175H55.183V25.3936C55.1831 25.8378 55.3596 26.2639 55.6738 26.578C55.9879 26.8921 56.414 27.0685 56.8582 27.0685C57.3025 27.0685 57.7285 26.8921 58.0427 26.578C58.3569 26.2639 58.5334 25.8378 58.5335 25.3936V23.7175H68.5817V25.3936C68.5816 25.6136 68.6249 25.8315 68.7091 26.0348C68.7933 26.2381 68.9167 26.4228 69.0722 26.5784C69.2278 26.734 69.4125 26.8574 69.6158 26.9416C69.819 27.0258 70.0369 27.0692 70.2569 27.0692C70.4769 27.0692 70.6948 27.0258 70.8981 26.9416C71.1014 26.8574 71.2861 26.734 71.4416 26.5784C71.5972 26.4228 71.7206 26.2381 71.8047 26.0348C71.8889 25.8315 71.9322 25.6136 71.9322 25.3936V23.7175H80.2994C81.256 23.7175 81.9738 24.437 81.9738 25.3936V33.7674H50.1581C49.7138 33.7675 49.2878 33.944 48.9737 34.2582C48.6596 34.5723 48.4832 34.9984 48.4832 35.4426C48.4832 35.8869 48.6596 36.3129 48.9737 36.6271C49.2878 36.9412 49.7138 37.1178 50.1581 37.1179H81.9738V78.9753C81.9738 79.9319 81.256 80.6497 80.2994 80.6497H35.9254C35.7054 80.6497 35.4875 80.693 35.2843 80.7771C35.081 80.8613 34.8962 80.9847 34.7407 81.1403C34.5851 81.2958 34.4616 81.4805 34.3774 81.6838C34.2932 81.8871 34.2499 82.1049 34.2499 82.325C34.2499 82.545 34.2932 82.7628 34.3774 82.9661C34.4616 83.1694 34.5851 83.3541 34.7407 83.5096C34.8962 83.6652 35.081 83.7886 35.2843 83.8728C35.4875 83.9569 35.7054 84.0002 35.9254 84.0002H80.2994C83.0533 84.0002 85.3243 81.7292 85.3243 78.9753V25.3936C85.3243 22.6397 83.0533 20.3752 80.2994 20.3752H71.9322V18.7008C71.9357 18.4765 71.8941 18.2538 71.8099 18.0459C71.7257 17.838 71.6005 17.6491 71.4419 17.4905C71.2833 17.3319 71.0944 17.2067 70.8865 17.1225C70.6786 17.0383 70.4559 16.9967 70.2316 17.0002C70.0116 17.0034 69.7943 17.05 69.5923 17.1372C69.3903 17.2244 69.2074 17.3506 69.0542 17.5086C68.9009 17.6665 68.7803 17.8531 68.6993 18.0577C68.6182 18.2622 68.5782 18.4808 68.5817 18.7008V20.3752H58.5335V18.7008C58.537 18.4765 58.4954 18.2538 58.4112 18.0459C58.327 17.838 58.2018 17.6491 58.0432 17.4905C57.8846 17.3319 57.6957 17.2067 57.4878 17.1225C57.2799 17.0383 57.0572 16.9967 56.8329 17.0002C56.6129 17.0034 56.3956 17.05 56.1936 17.1372C55.9916 17.2244 55.8087 17.3506 55.6555 17.5086C55.5023 17.6665 55.3817 17.8531 55.3006 18.0577C55.2195 18.2622 55.1796 18.4808 55.183 18.7008V20.3752H45.1413V18.7008C45.1448 18.4765 45.1033 18.2538 45.019 18.0459C44.9348 17.838 44.8097 17.6491 44.6511 17.4905C44.4924 17.3319 44.3036 17.2067 44.0957 17.1225C43.8877 17.0383 43.665 16.9967 43.4407 17.0002C43.2207 17.0034 43.0035 17.05 42.8014 17.1372C42.5994 17.2244 42.4166 17.3506 42.2633 17.5086C42.1101 17.6665 41.9895 17.8531 41.9084 18.0577C41.8274 18.2622 41.7874 18.4808 41.7908 18.7008V20.3752H31.741V18.7008C31.7445 18.4766 31.703 18.2541 31.6188 18.0463C31.5347 17.8385 31.4097 17.6497 31.2513 17.4911C31.0929 17.3325 30.9042 17.2073 30.6965 17.123C30.4887 17.0387 30.2662 16.9969 30.042 17.0002ZM40.1148 47.1628C39.8949 47.1628 39.6772 47.2061 39.474 47.2903C39.2709 47.3744 39.0863 47.4977 38.9308 47.6532C38.7753 47.8087 38.652 47.9933 38.5678 48.1964C38.4837 48.3996 38.4403 48.6173 38.4403 48.8372C38.4403 49.2813 38.6168 49.7072 38.9308 50.0212C39.2448 50.3352 39.6707 50.5116 40.1148 50.5116C40.5589 50.5116 40.9848 50.3352 41.2988 50.0212C41.6128 49.7072 41.7892 49.2813 41.7892 48.8372C41.7892 48.6173 41.7459 48.3996 41.6617 48.1964C41.5776 47.9933 41.4543 47.8087 41.2988 47.6532C41.1433 47.4977 40.9587 47.3744 40.7556 47.2903C40.5524 47.2061 40.3347 47.1628 40.1148 47.1628ZM50.1613 47.1628C49.7173 47.1628 49.2914 47.3392 48.9773 47.6532C48.6633 47.9672 48.4869 48.3931 48.4869 48.8372C48.4869 49.2813 48.6633 49.7072 48.9773 50.0212C49.2914 50.3352 49.7173 50.5116 50.1613 50.5116C50.6054 50.5116 51.0313 50.3352 51.3453 50.0212C51.6594 49.7072 51.8358 49.2813 51.8358 48.8372C51.8358 48.6173 51.7925 48.3996 51.7083 48.1964C51.6242 47.9933 51.5008 47.8087 51.3453 47.6532C51.1899 47.4977 51.0053 47.3744 50.8021 47.2903C50.599 47.2061 50.3812 47.1628 50.1613 47.1628ZM60.2079 47.1628C59.7638 47.1628 59.3379 47.3392 59.0239 47.6532C58.7099 47.9672 58.5335 48.3931 58.5335 48.8372C58.5335 49.2813 58.7099 49.7072 59.0239 50.0212C59.3379 50.3352 59.7638 50.5116 60.2079 50.5116C60.652 50.5116 61.0779 50.3352 61.3919 50.0212C61.7059 49.7072 61.8823 49.2813 61.8823 48.8372C61.8823 48.6173 61.839 48.3996 61.7549 48.1964C61.6707 47.9933 61.5474 47.8087 61.3919 47.6532C61.2364 47.4977 61.0518 47.3744 60.8487 47.2903C60.6455 47.2061 60.4278 47.1628 60.2079 47.1628ZM70.2545 47.1628C70.0346 47.1628 69.8168 47.2061 69.6137 47.2903C69.4105 47.3744 69.226 47.4977 69.0705 47.6532C68.915 47.8087 68.7916 47.9933 68.7075 48.1964C68.6234 48.3996 68.58 48.6173 68.58 48.8372C68.58 49.2813 68.7565 49.7072 69.0705 50.0212C69.3845 50.3352 69.8104 50.5116 70.2545 50.5116C70.6986 50.5116 71.1245 50.3352 71.4385 50.0212C71.7525 49.7072 71.9289 49.2813 71.9289 48.8372C71.9289 48.6173 71.8856 48.3996 71.8014 48.1964C71.7173 47.9933 71.594 47.8087 71.4385 47.6532C71.283 47.4977 71.0984 47.3744 70.8952 47.2903C70.6921 47.2061 70.4744 47.1628 70.2545 47.1628ZM30.0682 57.2094C29.8483 57.2094 29.6306 57.2527 29.4274 57.3368C29.2243 57.421 29.0397 57.5443 28.8842 57.6998C28.7287 57.8553 28.6054 58.0399 28.5212 58.243C28.4371 58.4462 28.3938 58.6639 28.3938 58.8838C28.3938 59.3279 28.5702 59.7538 28.8842 60.0678C29.1982 60.3818 29.6241 60.5582 30.0682 60.5582C30.5123 60.5582 30.9382 60.3818 31.2522 60.0678C31.5662 59.7538 31.7426 59.3279 31.7426 58.8838C31.7426 58.6639 31.6993 58.4462 31.6152 58.243C31.531 58.0399 31.4077 57.8553 31.2522 57.6998C31.0967 57.5443 30.9121 57.421 30.709 57.3368C30.5058 57.2527 30.2881 57.2094 30.0682 57.2094ZM40.1148 57.2094C39.8949 57.2094 39.6772 57.2527 39.474 57.3368C39.2709 57.421 39.0863 57.5443 38.9308 57.6998C38.7753 57.8553 38.652 58.0399 38.5678 58.243C38.4837 58.4462 38.4403 58.6639 38.4403 58.8838C38.4403 59.3279 38.6168 59.7538 38.9308 60.0678C39.2448 60.3818 39.6707 60.5582 40.1148 60.5582C40.5589 60.5582 40.9848 60.3818 41.2988 60.0678C41.6128 59.7538 41.7892 59.3279 41.7892 58.8838C41.7892 58.6639 41.7459 58.4462 41.6617 58.243C41.5776 58.0399 41.4543 57.8553 41.2988 57.6998C41.1433 57.5443 40.9587 57.421 40.7556 57.3368C40.5524 57.2527 40.3347 57.2094 40.1148 57.2094ZM50.1613 57.2094C49.7173 57.2094 49.2914 57.3858 48.9773 57.6998C48.6633 58.0138 48.4869 58.4397 48.4869 58.8838C48.4869 59.3279 48.6633 59.7538 48.9773 60.0678C49.2914 60.3818 49.7173 60.5582 50.1613 60.5582C50.6054 60.5582 51.0313 60.3818 51.3453 60.0678C51.6594 59.7538 51.8358 59.3279 51.8358 58.8838C51.8358 58.6639 51.7925 58.4462 51.7083 58.243C51.6242 58.0399 51.5008 57.8553 51.3453 57.6998C51.1899 57.5443 51.0053 57.421 50.8021 57.3368C50.599 57.2527 50.3812 57.2094 50.1613 57.2094ZM60.2079 57.2094C59.7638 57.2094 59.3379 57.3858 59.0239 57.6998C58.7099 58.0138 58.5335 58.4397 58.5335 58.8838C58.5335 59.3279 58.7099 59.7538 59.0239 60.0678C59.3379 60.3818 59.7638 60.5582 60.2079 60.5582C60.652 60.5582 61.0779 60.3818 61.3919 60.0678C61.7059 59.7538 61.8823 59.3279 61.8823 58.8838C61.8823 58.6639 61.839 58.4462 61.7549 58.243C61.6707 58.0399 61.5474 57.8553 61.3919 57.6998C61.2364 57.5443 61.0518 57.421 60.8487 57.3368C60.6455 57.2527 60.4278 57.2094 60.2079 57.2094ZM70.2545 57.2094C70.0346 57.2094 69.8168 57.2527 69.6137 57.3368C69.4105 57.421 69.226 57.5443 69.0705 57.6998C68.915 57.8553 68.7916 58.0399 68.7075 58.243C68.6234 58.4462 68.58 58.6639 68.58 58.8838C68.58 59.3279 68.7565 59.7538 69.0705 60.0678C69.3845 60.3818 69.8104 60.5582 70.2545 60.5582C70.6986 60.5582 71.1245 60.3818 71.4385 60.0678C71.7525 59.7538 71.9289 59.3279 71.9289 58.8838C71.9289 58.6639 71.8856 58.4462 71.8014 58.243C71.7173 58.0399 71.594 57.8553 71.4385 57.6998C71.283 57.5443 71.0984 57.421 70.8952 57.3368C70.6921 57.2527 70.4744 57.2094 70.2545 57.2094ZM30.0682 67.2559C29.6241 67.2559 29.1982 67.4323 28.8842 67.7463C28.5702 68.0604 28.3938 68.4863 28.3938 68.9303C28.3938 69.1502 28.4371 69.368 28.5212 69.5711C28.6054 69.7743 28.7287 69.9589 28.8842 70.1143C29.0397 70.2698 29.2243 70.3932 29.4274 70.4773C29.6306 70.5615 29.8483 70.6048 30.0682 70.6048C30.2881 70.6048 30.5058 70.5615 30.709 70.4773C30.9121 70.3932 31.0967 70.2698 31.2522 70.1143C31.4077 69.9589 31.531 69.7743 31.6152 69.5711C31.6993 69.368 31.7426 69.1502 31.7426 68.9303C31.7426 68.4863 31.5662 68.0604 31.2522 67.7464C30.9382 67.4323 30.5123 67.2559 30.0682 67.2559ZM40.1148 67.2559C39.6707 67.2559 39.2448 67.4323 38.9308 67.7464C38.6168 68.0604 38.4403 68.4863 38.4403 68.9303C38.4403 69.1502 38.4837 69.368 38.5678 69.5711C38.652 69.7743 38.7753 69.9589 38.9308 70.1143C39.0863 70.2698 39.2709 70.3932 39.474 70.4773C39.6772 70.5615 39.8949 70.6048 40.1148 70.6048C40.3347 70.6048 40.5524 70.5615 40.7556 70.4773C40.9587 70.3932 41.1433 70.2698 41.2988 70.1143C41.4543 69.9589 41.5776 69.7743 41.6617 69.5711C41.7459 69.368 41.7892 69.1502 41.7892 68.9303C41.7892 68.4863 41.6128 68.0604 41.2988 67.7464C40.9848 67.4323 40.5589 67.2559 40.1148 67.2559ZM50.1613 67.2559C49.7173 67.2559 49.2914 67.4323 48.9773 67.7464C48.6633 68.0604 48.4869 68.4863 48.4869 68.9303C48.4869 69.3744 48.6633 69.8003 48.9773 70.1143C49.2914 70.4284 49.7173 70.6048 50.1613 70.6048C50.3812 70.6048 50.599 70.5615 50.8021 70.4773C51.0053 70.3932 51.1899 70.2698 51.3453 70.1143C51.5008 69.9589 51.6242 69.7743 51.7083 69.5711C51.7925 69.368 51.8358 69.1502 51.8358 68.9303C51.8358 68.4863 51.6594 68.0604 51.3453 67.7463C51.0313 67.4323 50.6054 67.2559 50.1613 67.2559ZM60.2079 67.2559C59.7638 67.2559 59.3379 67.4323 59.0239 67.7464C58.7099 68.0604 58.5335 68.4863 58.5335 68.9303C58.5335 69.3744 58.7099 69.8003 59.0239 70.1143C59.3379 70.4284 59.7638 70.6048 60.2079 70.6048C60.4278 70.6048 60.6455 70.5615 60.8487 70.4773C61.0518 70.3932 61.2364 70.2698 61.3919 70.1143C61.5474 69.9589 61.6707 69.7743 61.7549 69.5711C61.839 69.368 61.8823 69.1502 61.8823 68.9303C61.8823 68.4863 61.7059 68.0604 61.3919 67.7463C61.0779 67.4323 60.652 67.2559 60.2079 67.2559ZM30.0682 80.6513C29.8483 80.6513 29.6306 80.6947 29.4274 80.7788C29.2243 80.8629 29.0397 80.9863 28.8842 81.1418C28.7287 81.2972 28.6054 81.4818 28.5212 81.685C28.4371 81.8881 28.3938 82.1059 28.3938 82.3258C28.3938 82.7699 28.5702 83.1958 28.8842 83.5098C29.1982 83.8238 29.6241 84.0002 30.0682 84.0002C30.5123 84.0002 30.9382 83.8238 31.2522 83.5098C31.5662 83.1958 31.7426 82.7699 31.7426 82.3258C31.7426 82.1059 31.6993 81.8881 31.6152 81.685C31.531 81.4818 31.4077 81.2972 31.2522 81.1418C31.0967 80.9863 30.9121 80.8629 30.709 80.7788C30.5058 80.6947 30.2881 80.6513 30.0682 80.6513Z" fill="#4B4B4B"/>
</svg>
