<svg width="100" height="100" viewBox="0 0 100 100" fill="none" xmlns="http://www.w3.org/2000/svg">
<rect x="50" width="50" height="47" rx="12" fill="#FF8E7C"/>
<path d="M43.5564 27.1942C38.003 21.6436 27.1356 21 19.4433 21C18.6466 21 18 21.6465 18 22.4431C18 30.1354 18.6408 41.0028 24.1942 46.5564C26.5381 48.9003 30.1317 49.948 33.6935 49.948C37.5642 49.948 41.4003 48.7098 43.5564 46.5536C47.6927 42.4173 48.4519 32.0867 43.5564 27.1942ZM41.5158 44.5157C38.4273 47.6012 29.8517 48.1294 26.238 44.5157C21.7553 40.0331 20.9788 30.9264 20.895 23.895C27.9264 23.9788 37.0331 24.7552 41.5157 29.2378C45.1296 32.8516 44.6014 41.4301 41.5158 44.5157Z" fill="#4B4B4B"/>
<path d="M80.1233 26.7085C72.431 26.7085 61.5636 27.3493 56.01 32.9027C51.1147 37.7952 51.8737 48.1258 56.01 52.2621C58.1662 54.4154 61.9994 55.6537 65.8701 55.6537C69.4319 55.6537 73.0227 54.6088 75.3722 52.2651C80.9228 46.7116 81.5665 35.8442 81.5665 28.1518C81.5666 27.3551 80.92 26.7085 80.1233 26.7085ZM73.3258 50.2213C69.712 53.8351 61.1335 53.3069 58.0479 50.2213C54.9624 47.1358 54.4342 38.5573 58.0479 34.9435C62.5306 30.4608 71.6372 29.6845 78.6686 29.6007C78.5849 36.6349 77.8084 45.7416 73.3258 50.2213Z" fill="#4B4B4B"/>
<path d="M69.7017 39.2023C69.3612 38.4778 68.3855 38.2297 67.6668 38.5644C56.5974 43.7686 51.1593 52.8436 48.6885 62.1725C45.6317 42.3369 36.7906 36.2898 33.0411 33.7238C32.5735 33.4034 32.2098 33.1696 32.0078 32.9705C31.445 32.4076 30.5299 32.4076 29.9671 32.9705C29.4042 33.5333 29.4042 34.4484 29.9671 35.0112C30.2528 35.2941 30.7464 35.6492 31.4132 36.1051C35.6389 38.9945 46.8642 46.6753 46.8642 77.2859C46.8642 78.0826 47.5108 78.7292 48.3075 78.7292C49.1041 78.7292 49.7507 78.0826 49.7507 77.2889C49.7507 64.9206 53.073 48.6151 68.8964 41.1796C68.8964 41.1768 69.1302 41.0671 69.1302 41.0671C69.8489 40.7264 70.0423 39.9239 69.7017 39.2023Z" fill="#4B4B4B"/>
</svg>
