<svg width="100" height="100" viewBox="0 0 100 100" fill="none" xmlns="http://www.w3.org/2000/svg">
<rect x="50" width="50" height="47" rx="12" fill="#FF8E7C"/>
<path d="M44.996 62.5262H17.5258C16.5362 62.5262 15.7363 61.7245 15.7363 60.7367C15.7363 59.7489 16.5362 58.9473 17.5258 58.9473H44.996C45.9856 58.9473 46.7855 59.7489 46.7855 60.7367C46.7855 61.7245 45.9838 62.5262 44.996 62.5262Z" fill="#4B4B4B"/>
<path d="M44.996 41.0531H17.5258C16.5362 41.0531 15.7363 40.2514 15.7363 39.2636C15.7363 38.2758 16.5362 37.4741 17.5258 37.4741H44.996C45.9856 37.4741 46.7855 38.2758 46.7855 39.2636C46.7855 40.2514 45.9838 41.0531 44.996 41.0531Z" fill="#4B4B4B"/>
<path d="M42.5789 51.7894H6.78947C5.79989 51.7894 5 50.9877 5 49.9999C5 49.0121 5.79989 48.2104 6.78947 48.2104H42.5789C43.5685 48.2104 44.3684 49.0121 44.3684 49.9999C44.3684 50.9877 43.5685 51.7894 42.5789 51.7894Z" fill="#4B4B4B"/>
<path d="M60.4733 56.9826C56.9176 56.9826 53.3154 54.5847 53.3154 50.0001C53.3154 45.4155 56.9176 43.0176 60.4733 43.0176C64.029 43.0176 67.6312 45.4155 67.6312 50.0001C67.6312 54.5847 64.029 56.9826 60.4733 56.9826ZM60.4733 46.5965C58.8216 46.5965 56.8944 47.4877 56.8944 50.0001C56.8944 52.5125 58.8216 53.4037 60.4733 53.4037C62.125 53.4037 64.0523 52.5125 64.0523 50.0001C64.0523 47.4877 62.125 46.5965 60.4733 46.5965Z" fill="#4B4B4B"/>
<path d="M64.2694 47.994C63.8113 47.994 63.3532 47.8186 63.0043 47.4696C62.3046 46.77 62.3046 45.639 63.0043 44.9393L73.1273 34.8163C73.827 34.1166 74.9579 34.1166 75.6576 34.8163C76.3573 35.516 76.3573 36.6469 75.6576 37.3466L65.5346 47.4696C65.1856 47.8186 64.7275 47.994 64.2694 47.994Z" fill="#4B4B4B"/>
<path d="M54.1473 58.1169C53.6892 58.1169 53.2311 57.9415 52.8822 57.5926C52.1825 56.8947 52.1825 55.7619 52.8822 55.0622L55.4125 52.5301C56.1122 51.8305 57.2431 51.8305 57.9428 52.5301C58.6425 53.228 58.6425 54.3608 57.9428 55.0604L55.4125 57.5926C55.0636 57.9415 54.6054 58.1169 54.1473 58.1169Z" fill="#4B4B4B"/>
<path d="M60.474 84.0001C59.4845 84.0001 58.6846 83.1984 58.6846 82.2106V76.8422C58.6846 75.8544 59.4845 75.0527 60.474 75.0527C61.4636 75.0527 62.2635 75.8544 62.2635 76.8422V82.2106C62.2635 83.1984 61.4636 84.0001 60.474 84.0001Z" fill="#4B4B4B"/>
<path d="M83.2495 74.5661C82.7914 74.5661 82.3332 74.3907 81.9843 74.0418L78.1888 70.2445C77.4891 69.5449 77.4891 68.4121 78.1888 67.7142C78.8885 67.0145 80.0195 67.0145 80.7191 67.7142L84.5146 71.5115C85.2143 72.2112 85.2143 73.3439 84.5146 74.0418C84.1639 74.3907 83.7058 74.5661 83.2495 74.5661Z" fill="#4B4B4B"/>
<path d="M79.452 32.8107C78.9939 32.8107 78.5358 32.6354 78.1869 32.2864C77.4872 31.5885 77.4872 30.4558 78.1869 29.7561L81.9824 25.9588C82.682 25.2592 83.813 25.2592 84.5127 25.9588C85.2123 26.6567 85.2123 27.7895 84.5127 28.4892L80.7172 32.2864C80.3682 32.6354 79.9101 32.8107 79.452 32.8107Z" fill="#4B4B4B"/>
<path d="M60.474 24.9474C59.4845 24.9474 58.6846 24.1457 58.6846 23.1579V17.7895C58.6846 16.8017 59.4845 16 60.474 16C61.4636 16 62.2635 16.8017 62.2635 17.7895V23.1579C62.2635 24.1457 61.4636 24.9474 60.474 24.9474Z" fill="#4B4B4B"/>
<path d="M92.6843 51.7894H87.3158C86.3263 51.7894 85.5264 50.9877 85.5264 49.9999C85.5264 49.0121 86.3263 48.2104 87.3158 48.2104H92.6843C93.6738 48.2104 94.4737 49.0121 94.4737 49.9999C94.4737 50.9877 93.6738 51.7894 92.6843 51.7894Z" fill="#4B4B4B"/>
<path d="M47.5697 30.3158H28.2631C27.2735 30.3158 26.4736 29.5141 26.4736 28.5263C26.4736 27.5385 27.2735 26.7368 28.2631 26.7368H47.5697C48.5593 26.7368 49.3592 27.5385 49.3592 28.5263C49.3592 29.5141 48.5593 30.3158 47.5697 30.3158Z" fill="#4B4B4B"/>
<path d="M47.5697 73.2635H28.2631C27.2735 73.2635 26.4736 72.4618 26.4736 71.474C26.4736 70.4863 27.2735 69.6846 28.2631 69.6846H47.5697C48.5593 69.6846 49.3592 70.4863 49.3592 71.474C49.3592 72.4618 48.5593 73.2635 47.5697 73.2635Z" fill="#4B4B4B"/>
<path d="M60.3621 83.9661C55.1172 83.9661 49.8185 82.7582 44.8975 80.2225C44.0189 79.7698 43.6735 78.6907 44.1262 77.8121C44.579 76.9335 45.6598 76.5881 46.5366 77.0408C60.5733 84.2739 78.0582 79.428 86.3435 66.0087C94.652 52.5501 91.1751 34.7287 78.4286 25.436C69.1968 18.7076 56.6776 17.7341 46.5366 22.9576C45.6598 23.4103 44.579 23.0667 44.1262 22.1863C43.6735 21.3077 44.0171 20.2286 44.8975 19.7759C56.2302 13.935 70.2168 15.0213 80.5367 22.5424C94.7844 32.9285 98.673 52.8471 89.3874 67.8877C83.033 78.1843 71.8326 83.9661 60.3621 83.9661Z" fill="#4B4B4B"/>
</svg>
