<svg width="100" height="100" viewBox="0 0 100 100" fill="none" xmlns="http://www.w3.org/2000/svg">
<rect x="50" width="50" height="47" rx="12" fill="#FF8E7C"/>
<path d="M74.9539 26.0184C64.617 26.0184 55.4977 22.4228 51.1574 16.6333C50.5465 15.8921 49.4511 15.7863 48.7099 16.3966C48.6235 16.4677 48.5443 16.5469 48.4727 16.6333C44.1323 22.4223 35.013 26.0184 24.6761 26.0184C23.7504 26.0184 23 26.7688 23 27.6945V49.4817C23 68.5969 36.6135 79.2947 49.3534 82.9363C49.655 83.0217 49.9745 83.0217 50.2766 82.9363C63.016 79.2947 76.63 68.5969 76.63 49.4817V27.6945C76.63 26.7688 75.8797 26.0184 74.9539 26.0184ZM73.2783 49.4817C73.2783 66.5027 61.2448 76.151 49.815 79.5779C38.3852 76.151 26.3518 66.5027 26.3518 49.4817V29.3425C36.2373 29.0057 44.7611 25.6882 49.815 20.2478C54.869 25.6882 63.3928 29.0057 73.2783 29.3425V49.4817Z" fill="#4B4B4B"/>
<path d="M48.3 37.0389L45.053 43.9525L37.8322 45.0571C36.9182 45.1941 36.289 46.0462 36.426 46.9597C36.4781 47.3088 36.6396 47.6319 36.8865 47.8834L42.1598 53.2895L40.9125 60.9443C40.7638 61.8578 41.3833 62.7191 42.2973 62.8679C42.6679 62.9282 43.0487 62.8623 43.3774 62.6808L49.8161 59.1205L56.2548 62.6798C57.0645 63.1276 58.0843 62.8336 58.5321 62.0239C58.7141 61.6947 58.78 61.3144 58.7197 60.9433L57.4725 53.2885L62.7457 47.8824C63.3929 47.2229 63.3826 46.1633 62.7232 45.5161C62.4717 45.2692 62.1487 45.1082 61.7995 45.0556L54.5787 43.9509L51.3317 37.0389C50.8584 36.2021 49.7957 35.9071 48.9589 36.381C48.6834 36.5364 48.4559 36.7638 48.3 37.0389ZM51.9273 46.1863C52.1634 46.6929 52.6378 47.0471 53.1909 47.1304L58.071 47.8767L54.4836 51.5541C54.1115 51.9344 53.9423 52.4696 54.0287 52.9946L54.8568 58.0782L50.6279 55.7396C50.1223 55.46 49.5094 55.46 49.0039 55.7396L44.7749 58.0782L45.603 52.9946C45.6894 52.4696 45.5202 51.9349 45.1481 51.5541L41.5607 47.8767L46.4408 47.1304C46.9939 47.0471 47.4683 46.6929 47.7045 46.1863L49.8156 41.6931L51.9273 46.1863Z" fill="#4B4B4B"/>
</svg>
