<svg width="100" height="100" viewBox="0 0 100 100" fill="none" xmlns="http://www.w3.org/2000/svg">
<rect x="50" width="50" height="47" rx="12" fill="#FF8E7C"/>
<path d="M68.2192 33.7211V28.9577H68.9223C70.6519 28.9624 72.0634 27.5751 72.0897 25.846V19.1164C72.0639 17.3862 70.653 15.9979 68.9223 16H31.1668C29.4362 15.9979 28.0252 17.3862 28 19.1164V25.846C28.0263 27.5751 29.4372 28.9624 31.1668 28.9577H31.8705V33.7211C31.8678 35.9771 32.8959 38.1106 34.6618 39.5142L47.3218 49.6358L34.9106 59.263C33.0937 60.6629 32.0314 62.8301 32.0388 65.1245V70.3549H31.1668C29.4372 70.3501 28.0263 71.7374 28 73.4665V80.1962C28.0252 81.9263 29.4362 83.3146 31.1668 83.3125H68.9223C70.653 83.3146 72.0639 81.9263 72.0897 80.1962V73.4665C72.0634 71.7374 70.6519 70.3501 68.9223 70.3549H68.3875V65.1576C68.377 62.8406 67.2916 60.6598 65.4494 59.2541L52.7857 49.6226L65.43 39.5136C67.1953 38.1101 68.2229 35.976 68.2192 33.7211ZM31.3656 19.3656H68.7241V25.592H31.3656V19.3656ZM68.7241 79.9469H31.3656V73.7205H33.4313C33.528 73.7205 33.6259 73.7478 33.7273 73.7478C33.8283 73.7478 33.9272 73.7205 34.0239 73.7205H66.3865C66.4828 73.7205 66.5816 73.7478 66.6826 73.7478C66.7841 73.7478 66.8824 73.7205 66.9787 73.7205H68.7241V79.9469ZM65.0219 65.1576V70.3549H35.4044V65.1245C35.4017 63.8708 35.9818 62.687 36.9757 61.9224L50.0533 51.7782L63.4111 61.9324C64.4187 62.7002 65.014 63.8913 65.0219 65.1576ZM63.3249 36.8853L50.048 47.5017L36.7664 36.8853C35.7998 36.1196 35.2361 34.9543 35.2361 33.7211V28.9577H64.8536V33.7211C64.8536 34.9543 64.2909 36.1191 63.3249 36.8853Z" fill="#4B4B4B"/>
</svg>
