<svg width="100" height="100" viewBox="0 0 100 100" fill="none" xmlns="http://www.w3.org/2000/svg">
<rect x="50" width="50" height="47" rx="12" fill="#FF8E7C"/>
<path d="M91.8835 54.3763C91.8833 54.3759 91.8833 54.3757 91.8831 54.3753L76.2124 15.0274C75.8798 14.1914 74.9322 13.7832 74.0961 14.1158C74.0955 14.116 74.0949 14.1162 74.0943 14.1166L10.5201 39.4313C10.2609 39.5433 10.036 39.7221 9.86842 39.9494C9.33971 40.2241 9.0057 40.7679 9 41.3636V83.7257C9 84.6255 9.72952 85.355 10.6293 85.355H79.0604C79.9602 85.355 80.6897 84.6255 80.6897 83.7257V60.5895L90.9739 56.4934C91.8098 56.16 92.2169 55.2122 91.8835 54.3763ZM77.4311 82.0964H12.2586V42.9929H77.4311V82.0964ZM36.1851 39.7425L63.4663 28.8717C65.9011 31.4309 69.2748 32.8855 72.8071 32.8993L75.5281 39.7425H36.1851ZM80.6897 57.0897V41.3636C80.6897 40.4638 79.9602 39.7343 79.0604 39.7343H79.0343L75.5818 31.0631C75.5435 30.9908 75.4989 30.922 75.4482 30.8578C75.2735 30.0731 74.5468 29.5377 73.7456 29.6032C70.4589 29.9028 67.2436 28.5183 65.2031 25.9243C64.6954 25.2976 63.8029 25.1418 63.1127 25.5593C63.0353 25.5685 62.9585 25.5827 62.883 25.6017L29.5766 38.8643C29.1735 39.0223 28.8511 39.3357 28.6821 39.7343H18.5673L73.788 17.7467L88.2546 54.0722L80.6897 57.0897Z" fill="#4B4B4B"/>
<path d="M16.6809 71.0968C19.8442 72.0319 22.3195 74.5041 23.2584 77.6662C23.4643 78.3564 24.0992 78.8294 24.8193 78.8296C24.9038 78.8243 24.9878 78.8116 25.0702 78.7921C25.1433 78.8129 25.2181 78.8281 25.2934 78.8377H64.3969C64.4641 78.8289 64.5305 78.8153 64.5957 78.797C65.4098 78.9949 66.2301 78.4958 66.4283 77.6817C66.4289 77.6787 66.4297 77.6758 66.4303 77.6727C67.3668 74.5074 69.8425 72.0317 73.0079 71.0952C73.7755 70.8606 74.2524 70.0956 74.1256 69.303C74.1474 69.2239 74.163 69.1433 74.1728 69.0618V56.0273C74.1632 55.9457 74.1469 55.865 74.1239 55.7862C74.2516 54.9933 73.7744 54.228 73.0062 53.994C69.8409 53.0577 67.3657 50.581 66.4319 47.4148C66.1961 46.6419 65.4236 46.1637 64.6267 46.2971C64.5513 46.2761 64.4745 46.2608 64.3969 46.2515H25.2934C25.2114 46.2612 25.1301 46.2775 25.0507 46.3003C24.2582 46.1741 23.4937 46.6508 23.2584 47.4181C22.3214 50.5828 19.8458 53.0577 16.6809 53.994C15.9133 54.2286 15.4363 54.9935 15.5632 55.7862C15.542 55.8654 15.5267 55.9459 15.5176 56.0273V69.0618C15.5269 69.1384 15.5422 69.2142 15.5632 69.2883C15.4296 70.0861 15.9076 70.8596 16.6809 71.0968ZM18.7762 56.6888C22.0479 55.3748 24.6409 52.7817 25.955 49.5101H63.7338C65.0485 52.7817 67.6421 55.3748 70.9142 56.6888V68.4003C67.6435 69.7158 65.0509 72.3084 63.7354 75.5791H25.955C24.6395 72.3084 22.0468 69.7158 18.7762 68.4003V56.6888Z" fill="#4B4B4B"/>
<path d="M44.8452 72.3203C50.2443 72.3203 54.6211 67.9436 54.6211 62.5444C54.6211 57.1453 50.2443 52.7686 44.8452 52.7686C39.4461 52.7686 35.0693 57.1453 35.0693 62.5444C35.0746 67.9413 39.4483 72.315 44.8452 72.3203ZM44.8452 56.0272C48.4446 56.0272 51.3625 58.9451 51.3625 62.5444C51.3625 66.1438 48.4446 69.0617 44.8452 69.0617C41.2459 69.0617 38.328 66.1438 38.328 62.5444C38.328 58.9451 41.2459 56.0272 44.8452 56.0272Z" fill="#4B4B4B"/>
<path d="M26.9225 64.9885C28.2722 64.9885 29.3665 63.8942 29.3665 62.5446C29.3665 61.1949 28.2722 60.1006 26.9225 60.1006C25.5728 60.1006 24.4785 61.1949 24.4785 62.5446C24.4785 63.8944 25.5728 64.9885 26.9225 64.9885ZM26.9225 61.7299C27.3724 61.7299 27.7371 62.0947 27.7371 62.5446C27.7371 62.9944 27.3724 63.3592 26.9225 63.3592C26.4726 63.3592 26.1078 62.9944 26.1078 62.5446C26.1078 62.0947 26.4726 61.7299 26.9225 61.7299Z" fill="#4B4B4B"/>
<path d="M62.7672 64.9885C64.1169 64.9885 65.2112 63.8942 65.2112 62.5446C65.2112 61.1949 64.1169 60.1006 62.7672 60.1006C61.4175 60.1006 60.3232 61.1949 60.3232 62.5446C60.3232 63.8944 61.4175 64.9885 62.7672 64.9885ZM62.7672 61.7299C63.2171 61.7299 63.5819 62.0947 63.5819 62.5446C63.5819 62.9944 63.2171 63.3592 62.7672 63.3592C62.3173 63.3592 61.9526 62.9944 61.9526 62.5446C61.9526 62.0947 62.3173 61.7299 62.7672 61.7299Z" fill="#4B4B4B"/>
</svg>
