<svg width="100" height="100" viewBox="0 0 100 100" fill="none" xmlns="http://www.w3.org/2000/svg">
<rect x="50" width="50" height="47" rx="12" fill="#FF8E7C"/>
<path d="M62.875 13C62.0661 13 61.4102 13.656 61.4102 14.4648V21.2031C61.4102 22.012 62.0661 22.668 62.875 22.668C63.6839 22.668 64.3398 22.012 64.3398 21.2031V14.4648C64.3398 13.656 63.6839 13 62.875 13Z" fill="#4B4B4B"/>
<path d="M29.1836 58.7031C28.375 58.7031 27.7188 59.3594 27.7188 60.168C27.7188 60.9766 28.375 61.6328 29.1836 61.6328C29.9922 61.6328 30.6484 60.9766 30.6484 60.168C30.6484 59.3594 29.9922 58.7031 29.1836 58.7031Z" fill="#4B4B4B"/>
<path d="M83.3828 55.7734C83.3828 52.5426 80.7543 49.9141 77.5234 49.9141H66.5881C68.281 45.5777 68.9663 40.4736 68.8341 35.9301C68.8089 35.063 68.7757 34.5616 68.7307 34.2459C68.655 31.0809 66.0561 28.5273 62.875 28.5273C59.6441 28.5273 57.0156 31.1559 57.0156 34.3867V35.8516C57.0156 45.1161 45.119 50.3214 36.141 52.5536C35.4622 51.0017 33.9127 49.9141 32.1133 49.9141H17.4648C16.656 49.9141 16 50.57 16 51.3789V86.5352C16 87.344 16.656 88 17.4648 88H32.1133C33.9007 88 35.4413 86.9267 36.1271 85.3913C36.8705 85.582 37.5606 85.7622 38.1977 85.9286C43.3122 87.2644 46.1295 88 52.9814 88H68.7344C71.9652 88 74.5938 85.3715 74.5938 82.1406C74.5938 80.9359 74.228 79.8153 73.6021 78.8831C75.8649 78.0916 77.5234 75.9295 77.5234 73.3516C77.5234 72.1513 77.1666 71.027 76.5426 70.0905C78.7955 69.2978 80.4531 67.1406 80.4531 64.5625C80.4531 63.3578 80.0874 62.2372 79.4614 61.305C81.7243 60.5135 83.3828 58.3514 83.3828 55.7734ZM33.5781 83.6055C33.5781 84.4132 32.921 85.0703 32.1133 85.0703H18.9297V52.8438H32.1133C32.921 52.8438 33.5781 53.5009 33.5781 54.3086V83.6055ZM77.5234 58.7031C74.3815 58.7031 73.6325 58.7031 70.1992 58.7031C69.3903 58.7031 68.7344 59.3591 68.7344 60.168C68.7344 60.9769 69.3903 61.6328 70.1992 61.6328H74.5938C76.2092 61.6328 77.5234 62.9471 77.5234 64.5625C77.5234 66.1806 76.2118 67.4922 74.5938 67.4922H67.2695C66.4606 67.4922 65.8047 68.1481 65.8047 68.957C65.8047 69.7659 66.4606 70.4219 67.2695 70.4219H71.6641C73.2603 70.4219 74.5938 71.697 74.5938 73.3516C74.5938 74.9696 73.2821 76.2812 71.6641 76.2812C68.5221 76.2812 67.7731 76.2812 64.3398 76.2812C63.531 76.2812 62.875 76.9372 62.875 77.7461C62.875 78.555 63.531 79.2109 64.3398 79.2109H68.7344C70.3498 79.2109 71.6641 80.5252 71.6641 82.1406C71.6641 83.7561 70.3498 85.0703 68.7344 85.0703H52.9814C46.5058 85.0703 43.9766 84.4098 38.938 83.0939C38.1999 82.9012 37.3902 82.6898 36.5078 82.4648V55.4841C47.1086 52.959 59.9453 46.7956 59.9453 35.8516V34.3867C59.9453 32.7713 61.2596 31.457 62.875 31.457C64.4875 31.457 65.8016 32.7692 65.8047 34.3822V34.3867C65.8047 35.0233 66.5992 42.8364 63.4132 49.9141H58.4805C57.6716 49.9141 57.0156 50.57 57.0156 51.3789C57.0156 52.1878 57.6716 52.8438 58.4805 52.8438C59.5034 52.8438 75.8538 52.8438 77.5234 52.8438C79.1389 52.8438 80.4531 54.158 80.4531 55.7734C80.4531 57.3915 79.1415 58.7031 77.5234 58.7031Z" fill="#4B4B4B"/>
<path d="M29.1836 64.5625C28.3747 64.5625 27.7188 65.2185 27.7188 66.0273V77.7461C27.7188 78.555 28.3747 79.2109 29.1836 79.2109C29.9925 79.2109 30.6484 78.555 30.6484 77.7461V66.0273C30.6484 65.2185 29.9925 64.5625 29.1836 64.5625Z" fill="#4B4B4B"/>
<path d="M51.1562 31.457H45.2969C44.488 31.457 43.832 32.113 43.832 32.9219C43.832 33.7308 44.488 34.3867 45.2969 34.3867H51.1562C51.9651 34.3867 52.6211 33.7308 52.6211 32.9219C52.6211 32.113 51.9651 31.457 51.1562 31.457Z" fill="#4B4B4B"/>
<path d="M80.4531 31.457H74.5938C73.7849 31.457 73.1289 32.113 73.1289 32.9219C73.1289 33.7308 73.7849 34.3867 74.5938 34.3867H80.4531C81.262 34.3867 81.918 33.7308 81.918 32.9219C81.918 32.113 81.262 31.457 80.4531 31.457Z" fill="#4B4B4B"/>
<path d="M76.3404 19.4577C75.7683 18.8858 74.841 18.8858 74.2687 19.4577L70.1263 23.6001C69.5543 24.1722 69.5543 25.0997 70.1263 25.6719C70.6986 26.2439 71.6257 26.2438 72.198 25.6719L76.3404 21.5294C76.9125 20.9574 76.9125 20.0299 76.3404 19.4577Z" fill="#4B4B4B"/>
<path d="M55.6246 23.5997L51.4822 19.4572C50.91 18.8854 49.9828 18.8854 49.4105 19.4572C48.8384 20.0292 48.8384 20.9568 49.4105 21.529L53.5529 25.6714C54.1254 26.2434 55.0525 26.2433 55.6246 25.6714C56.1966 25.0994 56.1966 24.1718 55.6246 23.5997Z" fill="#4B4B4B"/>
</svg>
