<svg width="100" height="100" viewBox="0 0 100 100" fill="none" xmlns="http://www.w3.org/2000/svg">
<rect x="50" width="50" height="47" rx="12" fill="#FF8E7C"/>
<path d="M28.9377 24.6231C28.5697 24.6231 28.2017 24.4822 27.9199 24.2033L23.1875 19.4681L18.4551 24.2033C17.8945 24.764 16.9831 24.764 16.4224 24.2033C15.8618 23.6427 15.8618 22.7313 16.4224 22.1707L22.1726 16.4205C22.7333 15.8598 23.6447 15.8598 24.2053 16.4205L29.9555 22.1707C30.5161 22.7313 30.5161 23.6427 29.9555 24.2033C29.6737 24.4822 29.3057 24.6231 28.9377 24.6231Z" fill="#4B4B4B"/>
<path d="M77.8142 84.9998C77.4462 84.9998 77.0782 84.8589 76.7965 84.58C76.2358 84.0194 76.2358 83.108 76.7965 82.5473L81.5289 77.815L76.7965 73.0826C76.2358 72.5219 76.2358 71.6105 76.7965 71.0499C77.3571 70.4892 78.2685 70.4892 78.8291 71.0499L84.5793 76.8001C85.14 77.3607 85.14 78.2721 84.5793 78.8327L78.8291 84.5829C78.5503 84.8589 78.1823 84.9998 77.8142 84.9998Z" fill="#4B4B4B"/>
<path d="M23.1875 85.0001C22.394 85.0001 21.75 84.3561 21.75 83.5626V18.1543C21.75 17.3608 22.394 16.7168 23.1875 16.7168C23.9811 16.7168 24.6251 17.3608 24.6251 18.1543V83.5626C24.6251 84.3561 23.9811 85.0001 23.1875 85.0001Z" fill="#4B4B4B"/>
<path d="M82.8458 79.2496H17.4375C16.644 79.2496 16 78.6056 16 77.8121C16 77.0185 16.644 76.3745 17.4375 76.3745H82.8458C83.6393 76.3745 84.2833 77.0185 84.2833 77.8121C84.2833 78.6056 83.6393 79.2496 82.8458 79.2496Z" fill="#4B4B4B"/>
<path d="M53.3766 44.7486C53.2012 44.7486 53.0258 44.7169 52.8591 44.6537L34.171 37.466C33.6161 37.2532 33.251 36.7185 33.251 36.1233C33.251 35.5282 33.6161 34.9934 34.171 34.7806L52.8591 27.5929C53.1897 27.4664 53.5606 27.4664 53.8912 27.5929L72.5793 34.7806C73.1371 34.9934 73.5022 35.5282 73.5022 36.1233C73.5022 36.7185 73.1371 37.2532 72.5822 37.466L53.8941 44.6537C53.7274 44.7169 53.552 44.7486 53.3766 44.7486ZM38.6935 36.1233L53.3766 41.77L68.0597 36.1233L53.3766 30.4766L38.6935 36.1233Z" fill="#4B4B4B"/>
<path d="M53.3766 67.7495C53.2012 67.7495 53.0258 67.7179 52.8591 67.6547L34.171 60.4669C33.6161 60.2542 33.251 59.7194 33.251 59.1243V36.1236C33.251 35.3301 33.895 34.686 34.6885 34.686C35.482 34.686 36.1261 35.3301 36.1261 36.1236V58.1381L53.3766 64.7738L70.6271 58.1381V36.1236C70.6271 35.3301 71.2711 34.686 72.0647 34.686C72.8582 34.686 73.5022 35.3301 73.5022 36.1236V59.1243C73.5022 59.7194 73.1371 60.2542 72.5822 60.4669L53.8941 67.6547C53.7274 67.7179 53.552 67.7495 53.3766 67.7495Z" fill="#4B4B4B"/>
<path d="M53.376 67.7493C52.5825 67.7493 51.9385 67.1053 51.9385 66.3118V43.3111C51.9385 42.5176 52.5825 41.8735 53.376 41.8735C54.1695 41.8735 54.8136 42.5176 54.8136 43.3111V66.3118C54.8136 67.1053 54.1695 67.7493 53.376 67.7493Z" fill="#4B4B4B"/>
</svg>
