<svg width="100" height="100" viewBox="0 0 100 100" fill="none" xmlns="http://www.w3.org/2000/svg">
<rect x="50" width="50" height="47" rx="12" fill="#FF8E7C"/>
<path d="M56.6854 41.5127C56.0168 40.8366 54.9274 40.8281 54.2484 41.4937L41.5106 54.0828L35.9734 48.3505C35.313 47.6621 34.2197 47.6395 33.5314 48.3C32.8431 48.9604 32.8205 50.0537 33.4809 50.742C33.4839 50.745 33.4868 50.7481 33.4898 50.7512L40.2413 57.7479C40.5644 58.0775 41.006 58.2641 41.4675 58.266H41.4865C41.9394 58.2646 42.3736 58.0853 42.6955 57.7669L56.6698 43.9497C57.345 43.2801 57.3519 42.1908 56.6854 41.5127V41.5127Z" fill="#4B4B4B"/>
<path d="M50.6043 57.7479C50.9265 58.0767 51.3667 58.2632 51.8271 58.2661H51.8461C52.2989 58.2646 52.7331 58.0854 53.0551 57.7669L67.0295 43.9497C67.6629 43.2365 67.5982 42.1449 66.885 41.5115C66.2384 40.9372 65.2669 40.9297 64.6115 41.4937L51.8789 54.0829L51.4246 53.6114C50.7643 52.9231 49.6709 52.9004 48.9826 53.5608C48.2943 54.2212 48.2716 55.3145 48.932 56.0028C48.935 56.006 48.938 56.009 48.941 56.0121L50.6043 57.7479Z" fill="#4B4B4B"/>
<path fill-rule="evenodd" clip-rule="evenodd" d="M50 81.2432C67.2552 81.2432 81.2432 67.2552 81.2432 50C81.2432 32.7448 67.2552 18.7568 50 18.7568C32.7448 18.7568 18.7568 32.7448 18.7568 50C18.7568 67.2552 32.7448 81.2432 50 81.2432ZM50 84C68.7777 84 84 68.7777 84 50C84 31.2223 68.7777 16 50 16C31.2223 16 16 31.2223 16 50C16 68.7777 31.2223 84 50 84Z" fill="#4B4B4B"/>
</svg>
